<svg width="23" height="30" viewBox="0 0 23 30" fill="none" xmlns="http://www.w3.org/2000/svg">
<path d="M22.625 10.9999C22.6261 9.14619 22.1587 7.32223 21.2662 5.69747C20.3737 4.07271 19.0851 2.69985 17.52 1.7064C15.955 0.712955 14.1642 0.131147 12.3141 0.0150167C10.464 -0.101113 8.61455 0.252201 6.93754 1.04214C5.26053 1.83209 3.81035 3.03303 2.7217 4.53344C1.63305 6.03385 0.94124 7.78505 0.710528 9.62438C0.479816 11.4637 0.717685 13.3315 1.40204 15.0543C2.0864 16.7771 3.19504 18.299 4.625 19.4787V28.9999C4.62488 29.1705 4.66838 29.3382 4.75136 29.4872C4.83434 29.6362 4.95405 29.7615 5.0991 29.8512C5.24416 29.9409 5.40974 29.992 5.58011 29.9996C5.75049 30.0073 5.91999 29.9713 6.0725 29.8949L11.625 27.1249L17.1788 29.9012C17.318 29.9678 17.4707 30.0016 17.625 29.9999C17.8902 29.9999 18.1446 29.8946 18.3321 29.707C18.5196 29.5195 18.625 29.2652 18.625 28.9999V19.4787C19.8762 18.4482 20.8837 17.1536 21.5753 15.6876C22.2669 14.2217 22.6253 12.6208 22.625 10.9999ZM2.625 10.9999C2.625 9.21991 3.15284 7.47985 4.14177 5.99981C5.13071 4.51977 6.53632 3.36621 8.18085 2.68502C9.82539 2.00384 11.635 1.82561 13.3808 2.17287C15.1266 2.52014 16.7303 3.37731 17.989 4.63598C19.2476 5.89465 20.1048 7.4983 20.4521 9.24413C20.7993 10.99 20.6211 12.7996 19.9399 14.4441C19.2587 16.0886 18.1052 17.4942 16.6251 18.4832C15.1451 19.4721 13.405 19.9999 11.625 19.9999C9.23886 19.9973 6.95122 19.0482 5.26396 17.361C3.57671 15.6737 2.62765 13.3861 2.625 10.9999ZM16.625 27.3824L12.0713 25.1062C11.9323 25.0367 11.7791 25.0005 11.6238 25.0005C11.4684 25.0005 11.3152 25.0367 11.1763 25.1062L6.625 27.3824V20.7962C8.17296 21.5874 9.88657 21.9999 11.625 21.9999C13.3634 21.9999 15.077 21.5874 16.625 20.7962V27.3824ZM11.625 17.9999C13.0095 17.9999 14.3628 17.5894 15.514 16.8202C16.6651 16.0511 17.5623 14.9578 18.0922 13.6787C18.622 12.3996 18.7606 10.9922 18.4905 9.63431C18.2204 8.27644 17.5537 7.02916 16.5747 6.05019C15.5958 5.07123 14.3485 4.40454 12.9906 4.13444C11.6328 3.86435 10.2253 4.00297 8.94622 4.53278C7.66713 5.0626 6.57388 5.95981 5.80471 7.11095C5.03554 8.26209 4.625 9.61547 4.625 10.9999C4.62699 12.8558 5.36512 14.6352 6.67745 15.9475C7.98977 17.2598 9.76909 17.998 11.625 17.9999ZM11.625 5.99994C12.6139 5.99994 13.5806 6.29319 14.4029 6.84259C15.2251 7.392 15.866 8.17289 16.2444 9.08652C16.6228 10.0002 16.7219 11.0055 16.5289 11.9754C16.336 12.9453 15.8598 13.8362 15.1605 14.5355C14.4613 15.2347 13.5704 15.7109 12.6005 15.9039C11.6305 16.0968 10.6252 15.9978 9.71158 15.6193C8.79795 15.2409 8.01706 14.6 7.46765 13.7778C6.91825 12.9555 6.625 11.9888 6.625 10.9999C6.625 9.67386 7.15179 8.40209 8.08947 7.46441C9.02715 6.52672 10.2989 5.99994 11.625 5.99994Z" fill="white"/>
</svg>
