<svg width="26" height="26" viewBox="0 0 26 26" fill="none" xmlns="http://www.w3.org/2000/svg">
<path d="M8.27375 18.8C8.37885 18.879 8.49849 18.9365 8.62582 18.9692C8.75316 19.0019 8.8857 19.0091 9.01585 18.9906C9.146 18.972 9.27121 18.9279 9.38431 18.8609C9.49742 18.7939 9.5962 18.7052 9.675 18.6C10.2805 17.7927 11.0656 17.1375 11.9681 16.6862C12.8707 16.2349 13.8659 16 14.875 16C15.8841 16 16.8793 16.2349 17.7819 16.6862C18.6845 17.1375 19.4695 17.7927 20.075 18.6C20.1538 18.7051 20.2525 18.7936 20.3655 18.8605C20.4785 18.9274 20.6036 18.9714 20.7336 18.99C20.8636 19.0085 20.996 19.0013 21.1232 18.9687C21.2504 18.9361 21.3699 18.8788 21.475 18.8C21.5801 18.7212 21.6686 18.6225 21.7355 18.5095C21.8024 18.3965 21.8464 18.2714 21.865 18.1414C21.8835 18.0114 21.8763 17.879 21.8437 17.7518C21.8111 17.6246 21.7538 17.5051 21.675 17.4C20.7895 16.2128 19.6087 15.2781 18.25 14.6887C18.9946 14.0089 19.5163 13.1199 19.7466 12.1382C19.9769 11.1566 19.905 10.1283 19.5404 9.18828C19.1759 8.24823 18.5356 7.44037 17.7037 6.87072C16.8717 6.30106 15.887 5.99623 14.8787 5.99623C13.8705 5.99623 12.8858 6.30106 12.0538 6.87072C11.2219 7.44037 10.5816 8.24823 10.2171 9.18828C9.85249 10.1283 9.78063 11.1566 10.0109 12.1382C10.2412 13.1199 10.7629 14.0089 11.5075 14.6887C10.146 15.277 8.96255 16.2118 8.075 17.4C7.91574 17.612 7.84721 17.8786 7.88448 18.1412C7.92175 18.4037 8.06177 18.6407 8.27375 18.8ZM11.875 11C11.875 10.4067 12.0509 9.82664 12.3806 9.33329C12.7102 8.83994 13.1788 8.45542 13.7269 8.22836C14.2751 8.0013 14.8783 7.94189 15.4603 8.05764C16.0422 8.1734 16.5768 8.45912 16.9963 8.87868C17.4159 9.29824 17.7016 9.83279 17.8174 10.4147C17.9331 10.9967 17.8737 11.5999 17.6466 12.1481C17.4196 12.6962 17.0351 13.1648 16.5417 13.4944C16.0484 13.8241 15.4683 14 14.875 14C14.0794 14 13.3163 13.6839 12.7537 13.1213C12.1911 12.5587 11.875 11.7956 11.875 11ZM23.875 0H5.875C5.34457 0 4.83586 0.210714 4.46079 0.585786C4.08571 0.960859 3.875 1.46957 3.875 2V5H1.875C1.60978 5 1.35543 5.10536 1.16789 5.29289C0.980357 5.48043 0.875 5.73478 0.875 6C0.875 6.26522 0.980357 6.51957 1.16789 6.70711C1.35543 6.89464 1.60978 7 1.875 7H3.875V12H1.875C1.60978 12 1.35543 12.1054 1.16789 12.2929C0.980357 12.4804 0.875 12.7348 0.875 13C0.875 13.2652 0.980357 13.5196 1.16789 13.7071C1.35543 13.8946 1.60978 14 1.875 14H3.875V19H1.875C1.60978 19 1.35543 19.1054 1.16789 19.2929C0.980357 19.4804 0.875 19.7348 0.875 20C0.875 20.2652 0.980357 20.5196 1.16789 20.7071C1.35543 20.8946 1.60978 21 1.875 21H3.875V24C3.875 24.5304 4.08571 25.0391 4.46079 25.4142C4.83586 25.7893 5.34457 26 5.875 26H23.875C24.4054 26 24.9141 25.7893 25.2892 25.4142C25.6643 25.0391 25.875 24.5304 25.875 24V2C25.875 1.46957 25.6643 0.960859 25.2892 0.585786C24.9141 0.210714 24.4054 0 23.875 0ZM23.875 24H5.875V2H23.875V24Z" fill="white"/>
</svg>
