<svg width="50" height="50" viewBox="0 0 50 50" fill="none" xmlns="http://www.w3.org/2000/svg">
<path d="M16.6667 28.927C16.2362 28.927 15.8612 28.7673 15.5417 28.4478C15.2223 28.1284 15.0625 27.7534 15.0625 27.3228C15.0625 26.8923 15.2223 26.518 15.5417 26.1999C15.8612 25.8819 16.2362 25.7221 16.6667 25.7208C17.0973 25.7194 17.4723 25.8791 17.7917 26.1999C18.1112 26.5208 18.2709 26.8958 18.2709 27.3249C18.2709 27.7541 18.1112 28.1284 17.7917 28.4478C17.4723 28.7673 17.0973 28.927 16.6667 28.927ZM25 28.927C24.5695 28.927 24.1945 28.7673 23.875 28.4478C23.5556 28.1284 23.3959 27.7534 23.3959 27.3228C23.3959 26.8923 23.5556 26.518 23.875 26.1999C24.1945 25.8819 24.5695 25.7221 25 25.7208C25.4306 25.7194 25.8056 25.8791 26.125 26.1999C26.4445 26.5208 26.6042 26.8958 26.6042 27.3249C26.6042 27.7541 26.4445 28.1284 26.125 28.4478C25.8056 28.7673 25.4306 28.927 25 28.927ZM33.3334 28.927C32.9028 28.927 32.5278 28.7673 32.2084 28.4478C31.8889 28.1284 31.7292 27.7534 31.7292 27.3228C31.7292 26.8923 31.8889 26.518 32.2084 26.1999C32.5278 25.8819 32.9028 25.7221 33.3334 25.7208C33.7639 25.7194 34.1389 25.8791 34.4584 26.1999C34.7778 26.5208 34.9375 26.8958 34.9375 27.3249C34.9375 27.7541 34.7778 28.1284 34.4584 28.4478C34.1389 28.7673 33.7639 28.927 33.3334 28.927ZM11.7 43.7499C10.7403 43.7499 9.93962 43.4291 9.29796 42.7874C8.65629 42.1457 8.33476 41.3451 8.33337 40.3853V13.7812C8.33337 12.8228 8.6549 12.0228 9.29796 11.3812C9.94101 10.7395 10.7417 10.418 11.7 10.4166H15.3855V5.77075H17.6292V10.4166H32.5334V5.77075H34.6167V10.4166H38.3021C39.2605 10.4166 40.0612 10.7381 40.7042 11.3812C41.3473 12.0242 41.6681 12.8249 41.6667 13.7833V40.3853C41.6667 41.3437 41.3459 42.1444 40.7042 42.7874C40.0625 43.4305 39.2612 43.7513 38.3 43.7499H11.7ZM11.7 41.6666H38.3021C38.6216 41.6666 38.9153 41.5333 39.1834 41.2666C39.4514 40.9999 39.5848 40.7055 39.5834 40.3833V22.1166H10.4167V40.3853C10.4167 40.7048 10.55 40.9985 10.8167 41.2666C11.0834 41.5346 11.3771 41.668 11.698 41.6666M10.4167 20.0312H39.5834V13.7812C39.5834 13.4617 39.45 13.168 39.1834 12.8999C38.9167 12.6319 38.6223 12.4985 38.3 12.4999H11.7C11.3792 12.4999 11.0848 12.6333 10.8167 12.8999C10.5487 13.1666 10.4153 13.461 10.4167 13.7833V20.0312Z" fill="white"/>
</svg>
