<svg width="38" height="51" viewBox="0 0 38 51" fill="none" xmlns="http://www.w3.org/2000/svg">
<path d="M34.2279 4.74233H3.77226C1.85743 4.74233 0.281006 6.32701 0.281006 8.23358V47.0088C0.281006 48.9236 1.85743 50.5 3.77226 50.5H34.2279C36.1427 50.5 37.7191 48.9153 37.7191 47.0088V8.24183C37.7191 6.32701 36.1427 4.75058 34.2279 4.75058V4.74233ZM35.6475 17.2217V39.1101H2.35265V17.2217H35.6475ZM34.2279 6.82222C34.9789 6.82222 35.6392 7.49076 35.6392 8.23358V15.1418H2.35265V8.23358C2.35265 7.4825 3.02119 6.82222 3.764 6.82222H34.2279ZM3.77226 48.4284C3.02118 48.4284 2.3609 47.7598 2.3609 47.017V41.19H35.6475V47.017C35.6475 47.7681 34.9789 48.4284 34.2361 48.4284H3.77226Z" fill="white"/>
<path d="M4.43254 2.66243H13.8333C14.4193 2.66243 14.9145 2.15896 14.9145 1.58122C14.9145 1.00347 14.4193 0.5 13.8333 0.5H4.43254C3.84654 0.5 3.35133 1.00347 3.35133 1.58122C3.35133 2.15896 3.84654 2.66243 4.43254 2.66243Z" fill="white"/>
<path d="M24.2411 2.66243H33.5593C34.1453 2.66243 34.6405 2.15896 34.6405 1.58122C34.6405 1.00347 34.1453 0.5 33.5593 0.5H24.2411C23.6633 0.5 23.1598 1.00347 23.1598 1.58122C23.1598 2.15896 23.6633 2.66243 24.2411 2.66243Z" fill="white"/>
<path d="M6.51243 12.0632H9.67354C10.2595 12.0632 10.7548 11.5598 10.7548 10.982C10.7548 10.4043 10.2595 9.90079 9.67354 9.90079H6.51243C5.92643 9.90079 5.43122 10.4043 5.43122 10.982C5.51376 11.568 5.92643 12.0632 6.51243 12.0632Z" fill="white"/>
<path d="M13.8416 12.0632H16.9202C17.5062 12.0632 18.0014 11.5598 18.0014 10.982C18.0014 10.4043 17.5062 9.90079 16.9202 9.90079H13.7591C13.1731 9.90079 12.6778 10.4043 12.6778 10.982C12.7604 11.568 13.2556 12.0632 13.8416 12.0632Z" fill="white"/>
<path d="M21.0799 12.0632H24.2411C24.8271 12.0632 25.3223 11.5598 25.3223 10.982C25.3223 10.4043 24.8271 9.90079 24.2411 9.90079H21.0799C20.4939 9.90079 19.9987 10.4043 19.9987 10.982C20.0813 11.568 20.4939 12.0632 21.0799 12.0632Z" fill="white"/>
<path d="M28.4008 12.0632H31.562C32.148 12.0632 32.6432 11.5598 32.6432 10.982C32.6432 10.4043 32.1397 9.90079 31.562 9.90079H28.4008C27.8148 9.90079 27.3196 10.4043 27.3196 10.982C27.3196 11.5598 27.8231 12.0632 28.4008 12.0632Z" fill="white"/>
</svg>
