<svg width="46" height="31" viewBox="0 0 46 31" fill="none" xmlns="http://www.w3.org/2000/svg">
<path d="M44.5087 0.5H1.49124C0.967554 0.5 0.518677 0.948877 0.518677 1.47257V29.5274C0.518677 30.0511 0.967554 30.5 1.49124 30.5H44.5087C45.0324 30.5 45.4813 30.0511 45.4813 29.5274V1.47257C45.4065 0.948877 44.9576 0.5 44.5087 0.5ZM43.5361 28.5549H2.389V2.37032H43.5361V28.5549Z" fill="white"/>
<path d="M32.3142 26.6845H39.7955C40.3192 26.6845 40.7681 26.2357 40.7681 25.712V5.21322C40.7681 4.68953 40.3192 4.24065 39.7955 4.24065H32.3142C31.7905 4.24065 31.3416 4.68953 31.3416 5.21322V25.7868C31.4164 26.2357 31.7905 26.6845 32.3142 26.6845ZM33.2868 6.11097H38.8977V24.8142H33.2868V6.11097Z" fill="white"/>
<path d="M7.10222 25.7868C7.62591 25.7868 8.07479 25.3379 8.07479 24.8142V6.11097C8.07479 5.58728 7.62591 5.1384 7.10222 5.1384C6.57853 5.1384 6.12965 5.58728 6.12965 6.11097V24.8142C6.12965 25.3379 6.57853 25.7868 7.10222 25.7868Z" fill="white"/>
</svg>
