<svg width="52" height="51" viewBox="0 0 52 51" fill="none" xmlns="http://www.w3.org/2000/svg">
<path d="M50.6197 32.0011L33.2863 16.668V1.58282C33.2863 0.995949 32.7821 0.5 32.2035 0.5H19.7055C19.1186 0.5 18.6227 1.00422 18.6227 1.58282V16.7506L1.28925 32.0011C1.04128 32.1664 0.958618 32.5053 0.958618 32.7533V49.4172C0.958618 50.004 1.45457 50.5 2.04144 50.5H49.9585C50.5453 50.5 51.0413 50.004 51.0413 49.4172V32.7533C50.9586 32.5053 50.7933 32.1664 50.628 32.0011H50.6197ZM20.7883 2.58299H31.2033V16.1637H20.7883V2.58299ZM3.03334 33.2492L20.1188 18.1641H31.8728L48.8756 33.2492V40.0851H3.03334V33.2492ZM48.8674 48.417H44.7014V46.334C44.7014 45.7472 44.1972 45.2512 43.6186 45.2512C43.04 45.2512 42.5357 45.7472 42.5357 46.334V48.417H40.5354V46.334C40.5354 45.7472 40.0312 45.2512 39.4526 45.2512C38.874 45.2512 38.3698 45.7472 38.3698 46.334V48.417H36.3694V46.334C36.3694 45.7472 35.8652 45.2512 35.2866 45.2512C34.708 45.2512 34.2038 45.7472 34.2038 46.334V48.417H3.03334V42.168H48.8674V48.417Z" fill="white"/>
<path d="M41.2049 32.0011L32.873 24.6693C32.4597 24.256 31.7902 24.3386 31.3686 24.7519C30.9553 25.1652 31.038 25.8348 31.4513 26.2563L39.7832 33.5881C40.1965 34.0014 40.866 33.9187 41.2793 33.5055C41.6926 33.0922 41.61 32.4226 41.1967 32.0011H41.2049Z" fill="white"/>
</svg>
