<svg width="27" height="18" viewBox="0 0 27 18" fill="none" xmlns="http://www.w3.org/2000/svg">
<path d="M0.125 1C0.125 0.734784 0.230357 0.48043 0.417893 0.292893C0.60543 0.105357 0.859784 0 1.125 0H23.125C23.3902 0 23.6446 0.105357 23.8321 0.292893C24.0196 0.48043 24.125 0.734784 24.125 1C24.125 1.26522 24.0196 1.51957 23.8321 1.70711C23.6446 1.89464 23.3902 2 23.125 2H1.125C0.859784 2 0.60543 1.89464 0.417893 1.70711C0.230357 1.51957 0.125 1.26522 0.125 1ZM1.125 10H10.125C10.3902 10 10.6446 9.89464 10.8321 9.70711C11.0196 9.51957 11.125 9.26522 11.125 9C11.125 8.73478 11.0196 8.48043 10.8321 8.29289C10.6446 8.10536 10.3902 8 10.125 8H1.125C0.859784 8 0.60543 8.10536 0.417893 8.29289C0.230357 8.48043 0.125 8.73478 0.125 9C0.125 9.26522 0.230357 9.51957 0.417893 9.70711C0.60543 9.89464 0.859784 10 1.125 10ZM12.125 16H1.125C0.859784 16 0.60543 16.1054 0.417893 16.2929C0.230357 16.4804 0.125 16.7348 0.125 17C0.125 17.2652 0.230357 17.5196 0.417893 17.7071C0.60543 17.8946 0.859784 18 1.125 18H12.125C12.3902 18 12.6446 17.8946 12.8321 17.7071C13.0196 17.5196 13.125 17.2652 13.125 17C13.125 16.7348 13.0196 16.4804 12.8321 16.2929C12.6446 16.1054 12.3902 16 12.125 16ZM25.8325 17.7075C25.7396 17.8005 25.6293 17.8742 25.5079 17.9246C25.3865 17.9749 25.2564 18.0008 25.125 18.0008C24.9936 18.0008 24.8635 17.9749 24.7421 17.9246C24.6207 17.8742 24.5104 17.8005 24.4175 17.7075L21.875 15.17C20.841 15.8522 19.5907 16.1262 18.3662 15.9391C17.1417 15.752 16.0302 15.117 15.2472 14.1572C14.4642 13.1973 14.0653 11.981 14.1279 10.7439C14.1905 9.50672 14.7101 8.33686 15.586 7.46096C16.4619 6.58505 17.6317 6.06546 18.8689 6.00288C20.106 5.94029 21.3223 6.33915 22.2822 7.12219C23.242 7.90522 23.877 9.01667 24.0641 10.2412C24.2512 11.4657 23.9772 12.716 23.295 13.75L25.8325 16.2875C25.9262 16.3805 26.0006 16.4911 26.0514 16.6129C26.1022 16.7348 26.1283 16.8655 26.1283 16.9975C26.1283 17.1295 26.1022 17.2602 26.0514 17.3821C26.0006 17.5039 25.9262 17.6145 25.8325 17.7075ZM19.125 14C19.7183 14 20.2984 13.8241 20.7917 13.4944C21.2851 13.1648 21.6696 12.6962 21.8966 12.1481C22.1237 11.5999 22.1831 10.9967 22.0674 10.4147C21.9516 9.83278 21.6659 9.29824 21.2463 8.87868C20.8268 8.45912 20.2922 8.1734 19.7103 8.05764C19.1283 7.94189 18.5251 8.0013 17.9769 8.22836C17.4288 8.45542 16.9602 8.83994 16.6306 9.33329C16.3009 9.82664 16.125 10.4067 16.125 11C16.125 11.7956 16.4411 12.5587 17.0037 13.1213C17.5663 13.6839 18.3294 14 19.125 14Z" fill="white"/>
</svg>
