<svg width="28" height="40" viewBox="0 0 28 40" fill="none" xmlns="http://www.w3.org/2000/svg">
<path d="M1.14282 16.7678H26.8571M6.85711 8.19632V9.6249M5.42854 35.3392V38.1963M22.5714 35.3392V38.1963M24 1.05347H3.99996C3.2422 1.05347 2.51548 1.35449 1.97966 1.8903C1.44384 2.42612 1.14282 3.15285 1.14282 3.91061V32.482C1.14282 33.2398 1.44384 33.9665 1.97966 34.5023C2.51548 35.0382 3.2422 35.3392 3.99996 35.3392H24C24.7577 35.3392 25.4845 35.0382 26.0203 34.5023C26.5561 33.9665 26.8571 33.2398 26.8571 32.482V3.91061C26.8571 3.15285 26.5561 2.42612 26.0203 1.8903C25.4845 1.35449 24.7577 1.05347 24 1.05347Z" stroke="white" stroke-width="2" stroke-linecap="round" stroke-linejoin="round"/>
</svg>
