<svg width="27" height="26" viewBox="0 0 27 26" fill="none" xmlns="http://www.w3.org/2000/svg">
<path d="M26.22 5.62507C26.1593 5.47514 26.0632 5.34217 25.9399 5.23754C25.8165 5.13292 25.6697 5.05977 25.5119 5.02438C25.354 4.98898 25.19 4.99239 25.0338 5.03431C24.8776 5.07623 24.7339 5.15541 24.615 5.26507L19.5775 9.91382L17.4237 9.45132L16.9612 7.29757L21.61 2.26007C21.7197 2.14119 21.7988 1.99748 21.8408 1.84127C21.8827 1.68507 21.8861 1.52102 21.8507 1.36321C21.8153 1.2054 21.7421 1.05852 21.6375 0.935187C21.5329 0.81185 21.3999 0.71573 21.25 0.65507C19.8837 0.102362 18.4025 -0.106326 16.9366 0.0473435C15.4708 0.201013 14.0651 0.712335 12.8431 1.53638C11.6211 2.36043 10.6202 3.47199 9.92829 4.77338C9.2364 6.07478 8.87471 7.52618 8.875 9.00007C8.87338 10.2447 9.12871 11.4762 9.625 12.6176L2.09875 19.1251C2.08 19.1401 2.0625 19.1576 2.045 19.1738C1.29477 19.9241 0.873291 20.9416 0.873291 22.0026C0.873291 22.5279 0.976766 23.0481 1.17781 23.5335C1.37885 24.0188 1.67352 24.4598 2.045 24.8313C2.41647 25.2028 2.85748 25.4975 3.34284 25.6985C3.8282 25.8996 4.3484 26.003 4.87375 26.003C5.93473 26.003 6.95227 25.5816 7.7025 24.8313C7.71875 24.8151 7.73625 24.7963 7.75125 24.7788L14.2575 17.2501C15.628 17.8517 17.127 18.102 18.6186 17.9783C20.1103 17.8547 21.5475 17.3609 22.8003 16.5418C24.053 15.7227 25.0817 14.6041 25.7932 13.2872C26.5047 11.9704 26.8765 10.4968 26.875 9.00007C26.8769 7.8433 26.6545 6.69713 26.22 5.62507ZM17.875 16.0001C16.6913 15.9984 15.5273 15.6974 14.4912 15.1251C14.2905 15.0142 14.0578 14.9756 13.832 15.0159C13.6063 15.0562 13.4012 15.1729 13.2512 15.3463L6.26375 23.4388C5.88562 23.7981 5.38212 23.9954 4.8606 23.9887C4.33908 23.982 3.84079 23.7719 3.47199 23.4031C3.10319 23.0343 2.89305 22.536 2.88637 22.0145C2.87969 21.4929 3.07701 20.9894 3.43625 20.6113L11.5225 13.6251C11.6963 13.475 11.8131 13.2697 11.8534 13.0437C11.8937 12.8177 11.855 12.5847 11.7437 12.3838C11.1063 11.2309 10.8071 9.92143 10.8807 8.60605C10.9542 7.29066 11.3974 6.02272 12.1594 4.94801C12.9214 3.8733 13.9713 3.03544 15.1882 2.53076C16.4051 2.02607 17.7398 1.87506 19.0387 2.09507L15.1387 6.32132C15.0302 6.43904 14.9516 6.58109 14.9094 6.73553C14.8672 6.88997 14.8627 7.05228 14.8962 7.20882L15.6037 10.5001C15.6442 10.6883 15.7382 10.8609 15.8743 10.997C16.0105 11.1332 16.183 11.2271 16.3712 11.2676L19.665 11.9751C19.8215 12.0086 19.9839 12.0041 20.1383 11.9619C20.2927 11.9197 20.4348 11.8411 20.5525 11.7326L24.7787 7.83257C24.9472 8.83633 24.895 9.86474 24.6258 10.8463C24.3566 11.8278 23.8767 12.7389 23.2197 13.5163C22.5626 14.2936 21.7442 14.9184 20.8212 15.3474C19.8982 15.7763 18.8928 15.999 17.875 16.0001Z" fill="white"/>
</svg>
