<?xml version="1.0" encoding="UTF-8" standalone="no"?>
<!-- Generator: Adobe Illustrator 19.2.1, SVG Export Plug-In . SVG Version: 6.00 Build 0)  -->

<svg
   xmlns:dc="http://purl.org/dc/elements/1.1/"
   xmlns:cc="http://creativecommons.org/ns#"
   xmlns:rdf="http://www.w3.org/1999/02/22-rdf-syntax-ns#"
   xmlns:svg="http://www.w3.org/2000/svg"
   xmlns="http://www.w3.org/2000/svg"
   xmlns:sodipodi="http://sodipodi.sourceforge.net/DTD/sodipodi-0.dtd"
   xmlns:inkscape="http://www.inkscape.org/namespaces/inkscape"
   version="1.1"
   id="layer"
   x="0px"
   y="0px"
   viewBox="0 0 1000 305.33954"
   xml:space="preserve"
   sodipodi:docname="A.svg"
   width="1000"
   height="305.33954"
   inkscape:version="0.92.4 (5da689c313, 2019-01-14)"><metadata
   id="metadata37"><rdf:RDF><cc:Work
       rdf:about=""><dc:format>image/svg+xml</dc:format><dc:type
         rdf:resource="http://purl.org/dc/dcmitype/StillImage" /><dc:title></dc:title></cc:Work></rdf:RDF></metadata><defs
   id="defs35" /><sodipodi:namedview
   pagecolor="#ffffff"
   bordercolor="#666666"
   borderopacity="1"
   objecttolerance="10"
   gridtolerance="10"
   guidetolerance="10"
   inkscape:pageopacity="0"
   inkscape:pageshadow="2"
   inkscape:window-width="1920"
   inkscape:window-height="1017"
   id="namedview33"
   showgrid="false"
   fit-margin-top="0"
   fit-margin-left="0"
   fit-margin-right="0"
   fit-margin-bottom="0"
   inkscape:zoom="0.51189325"
   inkscape:cx="178.31955"
   inkscape:cy="93.6041"
   inkscape:window-x="1912"
   inkscape:window-y="-8"
   inkscape:window-maximized="1"
   inkscape:current-layer="g28" />
<style
   type="text/css"
   id="style2">
	.st0{fill:#00489A;}
	.st1{fill:#FFFFFF;}
	.st2{fill:#231815;}
</style>
<g
   id="g30"
   transform="translate(-20.9,-104.06045)">
	<g
   id="g28">
		<path
   class="st0"
   d="m 20.9,409.4 c 0,0 43.71868,-67.91083 43.71868,-153.27458 C 64.61868,170.76167 20.9,104.06045 20.9,104.06045 c 0,0 277.69138,40.26265 500.0864,40.26265 222.39502,0 499.9136,-40.26265 499.9136,-40.26265 0,0 -42.68187,65.66442 -42.68187,152.06497 0,86.40055 42.68187,153.27458 42.68187,153.27458 0,0 -277.69138,-36.80664 -499.9136,-36.80664 C 298.59138,372.59336 20.9,409.4 20.9,409.4"
   id="path4"
   inkscape:connector-curvature="0"
   style="fill:#00489a;stroke-width:1.72801101" />
		<path
   class="st1"
   d="m 520.9864,364.47171 c 248.31519,0 449.62848,-49.59391 449.62848,-107.65509 0,-58.06117 -201.31329,-105.06307 -449.62848,-105.06307 -248.31519,0 -449.801278,47.0019 -449.801278,105.06307 0,57.88837 201.486088,107.65509 449.801278,107.65509"
   id="path6"
   inkscape:connector-curvature="0"
   style="fill:#ffffff;stroke-width:1.72801101" />
		<path
   class="st2"
   d="m 204.41477,269.2583 c 1.72802,3.62883 4.49283,6.91205 12.96009,6.91205 5.52963,0 11.23207,-1.20961 11.23207,-5.18404 0,-4.32002 -7.25765,-5.18403 -11.92328,-5.35683 -24.01935,-1.38241 -45.96509,-5.70244 -45.96509,-22.63695 0,-6.91204 3.80162,-13.82408 12.09608,-17.97131 8.29445,-3.97443 21.42733,-5.35683 31.6226,-5.35683 21.77294,0 42.50907,6.39364 42.50907,22.46414 H 224.8053 c -2.93761,-5.35683 -5.52963,-6.56644 -13.30568,-6.56644 -4.14723,0 -10.19527,0.864 -10.19527,4.49283 0,3.80162 6.73925,4.66563 11.40488,5.01123 9.67686,1.0368 22.29134,2.41921 31.4498,5.18403 11.75047,3.45602 15.5521,10.88647 15.5521,18.83532 0,17.10731 -19.52653,23.67375 -42.16347,23.67375 -25.57457,0 -47.1747,-2.59201 -47.1747,-23.32815 h 34.04181"
   id="path8"
   inkscape:connector-curvature="0"
   style="fill:#231815;stroke-width:1.72801101" />
		<path
   class="st2"
   d="m 346.97569,266.49349 c 0,8.29445 -0.69121,15.20649 -10.54087,20.73613 -8.81286,4.83843 -20.39053,5.35683 -31.1042,5.35683 -9.33126,0 -20.21773,-1.0368 -27.99378,-4.66563 -10.88647,-5.01123 -12.96008,-11.75047 -12.96008,-20.21773 v -47.0019 h 26.26577 v 44.40989 c 0,2.41921 1.72801,4.32002 3.80162,6.56644 2.41922,2.24641 6.91204,3.28322 11.05927,3.28322 3.62882,0 8.46726,-0.5184 10.88647,-2.59202 2.41922,-2.24641 4.14723,-4.49283 4.14723,-7.94885 v -43.71868 h 26.61137 v 45.7923"
   id="path10"
   inkscape:connector-curvature="0"
   style="fill:#231815;stroke-width:1.72801101" />
		<rect
   x="460.50598"
   y="246.27576"
   class="st2"
   width="36.979435"
   height="20.04493"
   id="rect12"
   style="fill:#231815;stroke-width:1.72801101" />
		<polyline
   class="st2"
   points="350,341 301.3,341 301.3,331.9 327.6,310.4 303.3,310.4 303.3,300.9 350.7,300.9 350.7,310.6     325.8,331.2 350,331.2 350,341   "
   id="polyline14"
   transform="matrix(1.7280111,0,0,1.7280111,-15.215431,-298.04773)"
   style="fill:#231815" />
		<polyline
   class="st2"
   points="402.1,341 355.5,341 355.5,301.2 400.7,301.2 400.7,310.7 371,310.7 371,316.2 395.6,316.2     395.6,325.7 371,325.7 371,331.4 402.1,331.4 402.1,341   "
   id="polyline16"
   transform="matrix(1.7280111,0,0,1.7280111,-15.215431,-298.04773)"
   style="fill:#231815" />
		<path
   class="st2"
   d="m 357.68936,221.3924 h 53.39554 c 7.77605,0 16.2433,-0.51841 22.80974,2.76481 5.18404,2.59202 10.02247,7.77605 10.02247,13.65129 0,7.43045 -1.55521,9.50406 -6.73925,14.34249 8.64006,4.66563 11.23208,9.33126 11.23208,17.28011 0,6.04804 -5.70244,15.2065 -13.13289,18.31692 -8.81285,3.80163 -17.97131,2.93762 -27.30257,2.93762 H 357.68936 V 221.3924 m 26.26576,25.74736 h 26.95698 c 2.41921,0 4.49282,-1.90081 4.49282,-4.32003 0,-2.41921 -1.90081,-4.32002 -4.49282,-4.32002 h -26.95698 z m 0,25.74737 h 29.54899 c 2.59202,0 4.83843,-2.24642 4.83843,-4.83843 0,-2.59202 -2.24641,-4.83844 -4.83843,-4.83844 h -29.54899 z"
   id="path18"
   inkscape:connector-curvature="0"
   style="fill:#231815;stroke-width:1.72801101" />
		<path
   class="st2"
   d="m 745.45504,291.03124 -16.76171,-26.43857 h -15.2065 v 26.43857 H 687.22106 V 221.9108 h 50.45793 c 8.98565,0 18.48972,0 26.09296,3.62882 8.46726,3.80163 11.57768,12.09608 11.57768,19.00812 0,9.33126 -4.66563,15.5521 -16.76171,19.52653 l 17.10731,27.12977 h -30.24019 m -31.79541,-43.37307 h 27.99378 c 2.59202,0 4.49283,-2.07362 4.49283,-4.49283 0,-2.41922 -2.07361,-4.49283 -4.49283,-4.49283 h -27.99378 z"
   id="path20"
   inkscape:connector-curvature="0"
   style="fill:#231815;stroke-width:1.72801101" />
		<path
   class="st2"
   d="m 872.11825,257.16223 c 0,20.39053 -13.47849,36.46103 -45.44669,36.46103 -35.07863,0 -49.07552,-13.30569 -49.07552,-36.46103 0,-20.73614 10.71367,-36.80664 49.07552,-36.80664 33.52341,-0.1728 45.44669,16.0705 45.44669,36.80664 m -66.01002,-0.51841 c 0,6.56644 1.2096,19.00812 18.83532,19.00812 17.45291,0 18.83532,-12.44168 18.83532,-19.00812 0,-6.56644 -1.90082,-19.87212 -18.83532,-19.87212 -17.10731,0 -18.83532,13.30568 -18.83532,19.87212 z"
   id="path22"
   inkscape:connector-curvature="0"
   style="fill:#231815;stroke-width:1.72801101" />
		
		
	</g>
</g>
</svg>