<?xml version="1.0" encoding="utf-8"?>
<!-- Generator: Adobe Illustrator 19.2.1, SVG Export Plug-In . SVG Version: 6.00 Build 0)  -->
<svg version="1.1" id="layer" xmlns="http://www.w3.org/2000/svg" xmlns:xlink="http://www.w3.org/1999/xlink" x="0px" y="0px"
	 viewBox="0 0 652 652" style="enable-background:new 0 0 652 652;" xml:space="preserve">
<style type="text/css">
	.st0{fill-rule:evenodd;clip-rule:evenodd;}
</style>
<g>
	<path d="M601.9,282.9l-24,0.5l-6.4-22.6c-1.5-0.2-3.1-0.3-4.6-0.3c-1.6,0-3.1,0.1-4.6,0.3l-6.4,22.6l-24-0.5
		c-1.3,2.8-2.3,5.7-2.9,8.8l19.1,12.5l-7.5,23.1c2.3,2.1,4.8,3.9,7.5,5.5l18.7-15.4l18.8,15.4c2.7-1.5,5.2-3.4,7.5-5.5l-7.6-23.1
		l19.2-12.5C604.1,288.6,603.2,285.6,601.9,282.9"/>
	<path d="M510.1,375c0-3.3,2.7-6,6-6c3.3,0,6,2.7,6,6c0,3.3-2.7,6-6,6C512.8,381.1,510.1,378.4,510.1,375 M521.4,375
		c0-2.9-2.4-5.3-5.3-5.3c-2.9,0-5.3,2.4-5.3,5.3c0,3,2.4,5.3,5.3,5.3C519.1,380.3,521.4,378,521.4,375 M519.2,378.4h-1l-1.9-3.1
		h-1.5v3.1h-0.8v-6.7h3c0.6,0,1.1,0,1.6,0.3c0.5,0.3,0.8,0.9,0.8,1.5c0,1.3-0.9,1.8-2.1,1.9L519.2,378.4z M516,374.6
		c0.9,0,2.4,0.2,2.4-1.2c0-1-0.9-1.2-1.8-1.2h-1.9v2.4H516z"/>
	<path class="st0" d="M90.3,311.1l0.6-3.2c0.4-1.9,0.6-3.6-1.7-3.6H26.6c-1.5,0-3.2-0.2-3.6,1.9l-1.3,5.1c-0.4,1.7,1.3,2.1,2.6,2.1
		h6.4c10.7,0,15.4,0.4,12.4,12.6l-12.2,51.1c0,1.1-1.5,3.9,2.8,3.9h15.2c2.1,0,3.6-0.4,4.3-2.8l12.2-52.2c1.5-6,3.2-12.6,12.6-12.6
		h9C88.2,313.5,89.5,314.1,90.3,311.1"/>
	<path class="st0" d="M304.5,331H248h-4.3c-1.5,0-2.3,0.8-2.6,1.9l-10.7,45.3c-0.6,2.3,1.9,2.8,3.4,2.8h12.4c3,0,3.4-1.3,3.9-2.8
		l8.3-35.7c0.6-2.8,2.8-4.3,4.9-4.3c2.1,0,4.7,1.7,3.9,5.1l-8.3,34.9c-0.4,2.8,2.4,2.8,3.4,2.8h12c1.7,0,3.6-0.2,4.1-2.8l8.3-35.7
		c0.6-2.8,2.8-4.3,5.1-4.3c2.4,0,4.5,1.7,3.6,5.1l-8.1,35.1c-0.6,2.6,2.1,2.6,3.2,2.6h11.8c1.9-0.2,4.1-0.2,4.5-2.8l8.2-34.9
		C317.3,334,310.4,331,304.5,331"/>
	<path class="st0" d="M428.5,304.3h-13.1c-1.5,0-3.6-0.2-4.3,2.4L396,371c-0.6,2.8-2.8,3.8-4.9,3.8c-2.1,0-4.3-1.7-3.4-5.1l6.4-27.6
		c0.6-2.2,1.5-4.5,5.1-4.5c1.1,0,1.7,0,2.2-2.1c0.4-1.7,1.7-4.5-0.6-4.5h-12.4c-6,0-10.5,3.2-11.5,8.3l-6.2,27
		c-1.5,5.8-0.6,14.8,6.9,14.8h32.3c1.9,0,3.8-0.4,4.5-2.8l16.5-70.4C430.9,306.4,431.7,304.3,428.5,304.3"/>
	<path class="st0" d="M358.2,331h-29.3c-2.3,0-3.6,0-4.3,1.7l-0.4,2.3c-0.2,0.7-0.4,2.1,1.3,2.1H347c3.6,0,2.8,2.3,1.5,8.1l-6,25.5
		c-0.6,2.8-2.6,4.1-4.7,4.1c-2.1,0-4.3-1.7-3.4-5.1l3.6-15.4c0.4-1.7,0.9-3,3.9-3c0.6,0,2.6,0,3-1.7c0.4-1.1,1.5-3.6-0.4-3.6h-16
		c-7.3,0-8.1,5.3-8.8,8.4l-2.8,11.8c-1.5,6.4,0,15,7.3,15h11.3H356c1.9,0,4-0.2,4.7-2.8l8.1-34.9C371.2,334,364.4,331,358.2,331"/>
	<path class="st0" d="M183.2,331h-11.4h-19.2c-1.9,0-5.6,1.3-6.8,6.2l-7.3,31.4c-2.4,9.4,4.7,12.4,10.7,12.4h29.9
		c2.6,0,3.2-0.2,3.6-1.7l0.6-2.3c0.2-0.6,0.5-2.3-1.3-2.1h-21.8c-3.6,0-3-1.9-1.5-8.3l6-25.2c0.6-2.8,2.6-4.1,4.7-4.1
		c2.8,0,4.3,1.7,3.4,5.1l-2.1,10c-0.6,1.9-1.1,3.2-4.1,3.2c-0.9,0-2.6,0-3,1.7l-0.4,1.7c-0.4,1.3,0.2,1.9,1.3,1.9h15.6
		c7.5,0,8.1-5.8,8.6-8.3l2.4-10C193,335.1,188.5,331,183.2,331"/>
	<path class="st0" d="M127.1,331h-13.3c-2.6,0-3-0.4-2.6-2.6l4.9-20.7c0.4-1.5,0.4-3.4-2.1-3.4H101c-1.5,0-3.6-0.4-4.5,2.4
		l-16.7,70.8c-0.2,1.7-0.9,3.6,2.5,3.6H95c2.4,0,4.1-0.4,4.7-2.8l8.6-36.8c0.9-2.8,1.5-4.1,6.4-4.1c2.4,0,4.7,1.9,3.6,5.3l-8.1,35.5
		c-0.6,2.8,1.9,2.8,3,2.8h12c1.7,0,3.8-0.4,4.5-2.8l8.1-34.7C139.9,334.2,133.3,331,127.1,331"/>
	<path class="st0" d="M467.9,331h-31.2c-1.9,0-5.8,1-6.8,6l-7.5,31.6c-2.1,9.4,4.3,12.4,10.7,12.4h31.2c1.9,0,5.8-1.3,6.8-6.2
		l7.5-31.4C480.9,334,473.9,331,467.9,331 M458.9,342.6l-6.4,27.6c-0.8,3.2-2.6,4.7-6,4.7c-2.1,0-4.5-1.7-3.6-5.1l6.4-27.8
		c0.6-2.8,2.4-4.3,5.8-4.3C457.4,337.6,459.8,339.4,458.9,342.6"/>
	<path class="st0" d="M232.8,337.2c0.9,0,2.1,0.2,2.6-1.5l0.4-2.6c0.2-0.6,0.9-2.1-0.6-2.1h-32.5c-1.5,0-2.4,1-2.8,2.1l-10.5,44.9
		c-0.6,2.8,1.7,3,3.2,3H205c3,0,3.4-1.3,3.9-2.8l7.1-30.2C218.9,335.5,226.6,337.4,232.8,337.2"/>
	<path class="st0" d="M522.2,331H490c-1.5,0-2.6,1-2.8,2.1l-10.5,44.9c-0.6,2.8,1.7,3,3.2,3h12.4c3,0,3.4-1.3,3.8-2.8l7.1-30.2
		c3-12.6,10.5-10.7,16.9-10.9c0.7,0,1.9,0.2,2.4-1.5l0.7-2.6C523.3,332.5,523.7,331,522.2,331"/>
	<path d="M609.5,286.1c0-3.3,2.7-6,6-6c3.3,0,6,2.7,6,6c0,3.3-2.7,6-6,6C612.2,292.1,609.5,289.4,609.5,286.1 M620.8,286.1
		c0-2.9-2.4-5.3-5.3-5.3c-2.9,0-5.3,2.4-5.3,5.3c0,3,2.4,5.3,5.3,5.3C618.5,291.4,620.8,289,620.8,286.1 M618.6,289.4h-1l-1.9-3.1
		h-1.5v3.1h-0.8v-6.7h3c0.6,0,1.1,0,1.6,0.3c0.5,0.3,0.8,0.9,0.8,1.5c0,1.3-0.9,1.8-2.1,1.9L618.6,289.4z M615.4,285.7
		c0.9,0,2.4,0.2,2.4-1.2c0-1-0.9-1.2-1.8-1.2h-1.9v2.4H615.4z"/>
</g>
</svg>
