<svg xmlns="http://www.w3.org/2000/svg" width="263" height="52" viewBox="0 0 263 52" fill="none">
<path d="M37.0182 32.0213H12.9848V37.1493H31.0953C32.4621 37.1493 28.7033 50.1401 20.8441 50.1401H0.227804V27.4631C0.227804 25.298 4.78389 19.6003 10.2512 19.1445C10.8207 19.1445 32.9177 19.1445 32.6899 19.1445C31.5509 19.3724 34.8541 18.5747 36.2209 16.9793C37.0182 15.8398 36.7904 14.8142 37.3599 14.0165H0C0.227804 12.0793 1.36683 1.59546 11.3902 1.59546H50.003V42.0493C47.8389 46.3796 44.6496 50.1401 37.5877 49.9122" fill="#D92231"/>
<path d="M224.615 26.0956C224.615 31.7933 225.982 36.1236 228.601 39.0864C231.221 42.0492 234.524 43.4167 238.625 43.4167C242.725 43.4167 245.914 42.0492 248.648 39.0864C251.382 36.1236 252.407 31.7933 252.407 26.0956C252.407 20.3979 251.04 16.0676 248.648 13.1048C246.256 10.3699 242.725 8.77449 238.625 8.77449C234.524 8.77449 231.107 10.1419 228.601 13.1048C225.982 15.8397 224.615 20.1699 224.615 26.0956ZM214.364 26.3235C214.364 21.1955 215.161 16.8653 216.528 13.3327C217.667 10.9396 219.261 8.43263 221.084 6.60936C222.906 4.78609 225.07 3.07676 227.576 2.05117C230.765 0.68372 234.296 0.113946 238.397 0.113946C245.687 0.113946 251.61 2.27908 256.28 6.83726C260.608 11.3954 263 17.8909 263 25.9816C263 34.0724 260.836 40.2259 256.507 44.8981C251.951 49.4563 246.028 51.9633 238.625 51.9633C231.221 51.9633 225.184 49.7981 220.742 45.2399C216.414 40.6818 214.25 34.1864 214.25 26.4374M170.853 50.9377V0.911635H181.104V23.0188L201.606 0.911635H215.047L196.139 20.3979L216.072 50.9377H203.087L189.077 27.463L180.99 35.7817V50.9377H170.739H170.853ZM120.964 34.7561L130.645 33.6166C131.215 36.8073 132.582 39.3143 134.176 40.9097C136.113 42.505 138.505 43.3027 141.466 43.3027C144.655 43.3027 147.161 42.505 148.756 41.1376C150.351 39.7701 151.148 38.1748 151.148 36.2375C151.148 35.098 150.92 34.0724 150.009 33.2747C149.098 32.477 148.072 31.6793 146.478 31.1096C145.339 30.5398 142.719 29.97 138.391 28.9444C133.037 27.577 129.279 25.9816 127.001 24.0444C124.039 21.3095 122.445 17.7769 122.445 14.0164C122.445 11.6234 123.242 9.11635 124.609 6.72331C125.975 4.55817 128.14 2.96281 130.873 1.59536C133.607 0.455811 136.796 0 140.555 0C146.82 0 151.603 1.36745 154.793 3.9884C157.982 6.60936 159.691 10.4838 159.918 15.042L149.895 15.6118C149.325 12.8769 148.528 11.2815 147.161 9.91404C145.794 8.7745 143.63 8.31867 140.669 8.31867C137.707 8.31867 135.543 8.88845 133.607 10.2559C132.468 11.0536 132.012 12.1931 132.012 13.2187C132.012 14.2443 132.582 15.3838 133.607 16.1815C134.974 17.3211 137.935 18.3467 142.719 19.3723C147.617 20.5118 151.376 21.7653 153.54 22.9049C155.932 24.2723 157.868 25.8677 159.235 28.0328C160.602 30.1979 161.171 32.9328 161.171 36.1236C161.171 39.0864 160.374 41.8213 158.779 44.2143C157.185 46.6074 155.021 48.5446 152.059 49.9121C149.098 51.2795 145.567 51.8493 141.238 51.8493C134.974 51.8493 130.19 50.4818 126.659 47.519C123.584 44.5562 121.647 40.2259 120.85 34.6422M101.714 31.2235L94.6524 12.535L87.9322 31.2235H101.714ZM120.394 50.9377H109.346L105.017 39.5422H85.0846L81.098 50.9377H70.2773L89.7546 0.911635H100.575L120.508 50.9377H120.394Z" fill="#D92231"/>
</svg>