<svg xmlns="http://www.w3.org/2000/svg" width="637" height="75" viewBox="0 0 637 75" fill="none">
<path d="M622.863 74.7115H636.418V0.865349H622.863V74.7115ZM589.407 52.7885L557.104 0.288468H544.414V74.1346H557.97L556.816 22.2115L589.118 74.1346H601.232V0.288468H587.676L589.118 52.7885H589.407ZM413.474 62.3077L452.122 12.4039V0.288468H397.612V12.9807H434.817L394.439 63.4615V75H452.122V62.3077H413.474ZM345.12 62.3077L383.768 12.4039V0.288468H329.258V12.9807H366.463L326.085 63.4615V75H383.479V62.3077H344.832H345.12ZM279.65 47.8846L290.033 13.8461L300.128 47.8846H279.65ZM307.915 74.7115H322.624L297.532 0.865349H281.958L256.866 74.7115H271.575L275.901 60H303.589L308.203 74.7115H307.915ZM262.922 0.865349H208.412V13.5577H228.313V74.7115H241.868V13.5577H262.346V0.865349H262.922ZM167.169 12.4039C175.533 12.4039 178.706 12.4038 181.878 14.1346C187.647 17.3077 187.647 22.5 187.647 24.2308C187.647 35.1923 177.552 35.7692 174.38 35.7692H160.536V12.6923H166.881L167.169 12.4039ZM146.692 74.7115H160.247V47.0192H172.937L187.647 74.1346H203.221L186.781 44.1346C191.108 42.9807 201.49 37.7884 201.49 23.6538C201.49 15.2885 197.741 8.94232 193.126 5.19232C186.781 8.59682e-06 179.859 0 170.053 0H146.403V74.7115H146.692ZM129.099 0.288468H76.6073V74.1346H131.694V61.4423H90.1628V41.5385H125.638V29.4231H90.1628V12.1154H128.81M27.577 40.6731C32.4801 40.6731 40.2672 40.6731 43.1514 46.4423C44.305 48.4615 44.8818 50.1923 44.8818 52.2115C44.8818 55.9615 43.1514 58.5577 41.7093 60.2885C37.9599 62.8846 35.941 62.8846 27.577 62.8846H14.0216V40.9615H27.577V40.6731ZM22.674 11.8269C32.7685 11.8269 34.2105 11.8269 37.3831 13.8461C39.9788 15.5769 41.7093 18.75 41.7093 21.0577C41.7093 24.2308 39.6904 27.4038 36.8063 29.1346C33.9221 30.8654 31.038 30.8654 27.2886 30.8654H14.0216V12.1154H22.674V11.8269ZM0.177734 74.7115H29.0191C37.3831 74.7115 41.1325 74.7115 45.7471 72.9807C54.6879 69.8076 59.0141 62.5962 59.0141 53.6539C59.0141 42.1154 50.9385 35.7692 43.4398 34.3269C47.766 33.75 50.3617 32.3077 52.9574 29.1346C54.9763 26.5385 56.13 22.2115 56.13 19.0385C56.13 10.9615 50.3617 4.32692 42.8629 2.30769C39.1136 1.15384 36.5178 1.15382 26.4234 1.15382H0.177734V74.7115ZM495.672 0.576936C476.349 0.576936 461.928 16.1538 461.928 37.5C461.928 46.4423 464.524 55.3846 471.446 63.4615C478.367 72.1153 487.02 74.4231 495.961 74.4231C517.592 74.4231 529.417 57.9807 529.705 37.5C529.705 13.5577 513.266 0.576936 495.961 0.576936H495.672ZM516.15 38.9423C515.861 55.9615 504.613 62.3077 495.672 62.3077C484.136 62.3077 475.195 52.7884 475.195 36.923C475.195 22.5 483.27 12.4039 495.384 12.4039C509.805 12.4039 517.015 25.6731 516.438 38.9423H516.15Z" fill="black"/>
</svg>