<svg xmlns="http://www.w3.org/2000/svg" width="407" height="74" viewBox="0 0 407 74" fill="none">
<path d="M77.8624 28.0581C77.8624 28.0581 78.1765 26.8025 77.3913 26.8025L49.5968 26.3317C49.5968 26.3317 48.9686 26.1748 48.9686 25.8609L39.7038 0.279012C39.7038 0.279012 38.6046 -0.348764 38.2905 0.279012L28.8686 25.8609C28.8686 25.8609 28.5546 26.3317 28.2405 26.3317L0.602983 26.9595C0.602983 26.9595 -0.339186 27.9012 0.131908 28.215L22.2733 45.165C22.2733 45.165 22.5874 45.6358 22.5874 45.9497L14.8928 72.1594C14.8928 72.1594 15.364 73.4149 15.9921 72.9441L35.621 60.0747L29.8108 48.6178C29.8108 48.6178 28.0835 45.7928 30.91 41.8692L36.8773 33.2373C36.8773 33.2373 41.1171 28.0581 38.4475 21.4665C38.4475 21.4665 41.9023 23.5067 43.6296 27.7442C44.5718 30.2553 44.8859 33.0803 43.6296 35.5914C42.8444 37.3178 41.7452 39.3581 40.489 41.0844C38.7616 43.2817 36.7202 46.7344 35.778 48.4608C35.1499 49.5594 34.2077 50.9719 34.3647 52.3844C34.3647 53.1691 34.8358 53.7969 35.621 53.9539C37.3483 54.2677 41.5882 47.833 41.5882 47.833C41.5882 47.833 45.671 42.6539 43.3155 39.515C41.1171 36.2192 47.2413 42.1831 47.2413 42.1831C47.2413 42.1831 51.0101 45.6358 47.2413 50.658C45.3569 53.3261 42.5304 56.308 40.3319 58.6622L62.4734 73.258C62.4734 73.258 63.7296 73.101 63.5726 72.4733L56.0351 46.1067C56.0351 46.1067 56.0351 45.4789 56.3491 45.3219L78.0194 28.215L77.8624 28.0581Z" fill="#002856"/>
<path d="M134.236 45.0079C133.137 37.7885 124.814 34.4927 124.814 34.4927C125.913 33.708 126.698 32.2955 127.012 31.1969C127.484 30.0983 127.641 28.9996 127.641 27.901V27.5872C127.641 25.0761 126.698 22.7219 124.971 20.9955C123.401 19.583 121.516 18.4844 119.789 17.8566C117.434 16.915 114.764 16.6011 112.095 16.6011H86.0273L89.482 22.408V57.2496L86.0273 62.7426H115.549C116.962 62.7426 118.219 62.7426 119.632 62.4287C128.897 60.5454 131.566 56.151 131.566 56.151C131.566 56.151 135.178 52.2274 134.236 45.0079ZM101.573 23.8205H113.194C113.194 23.8205 117.434 24.1344 117.434 28.5288C117.434 32.7663 112.723 33.2371 112.723 33.2371H101.573V23.9774V23.8205ZM116.962 55.3662H101.259V40.2996H117.591C117.591 40.2996 123.558 40.9274 123.401 47.8329C123.401 54.7385 116.805 55.3662 116.805 55.3662H116.962Z" fill="#002856"/>
<path d="M135.335 21.3096H151.352L148.369 26.6457V51.4428H162.815L168.155 48.6178L166.427 58.9761H135.335L138.162 54.7386V26.8026L135.335 21.3096Z" fill="#002856"/>
<path d="M168.154 21.3093L170.824 26.6454V47.8328C170.824 49.5592 171.295 51.2856 172.08 52.6981C173.807 55.68 178.047 59.7606 187.312 59.6036C195.321 59.6036 199.875 56.6217 202.23 54.1106C203.957 52.3842 204.743 50.03 204.743 47.5189V26.8023L207.569 21.3093H191.552L194.379 26.4884V47.0481C194.379 49.0884 193.279 50.9717 191.552 51.7564C190.61 52.2273 189.039 52.3842 187.469 52.3842C183.857 52.3842 182.758 51.2856 181.973 49.8731C181.345 48.9314 181.031 47.9898 181.031 46.8912V26.6454L184.172 21.1523H168.154V21.3093Z" fill="#002856"/>
<path d="M209.926 21.3095L212.595 26.8026V53.7969L209.926 58.8191H240.704L242.745 48.9317L237.563 51.4428L223.116 51.5997L222.959 43.9095H231.282L235.522 46.4206L235.365 33.3942L231.439 35.7484H222.959V28.6859H239.919L236.15 20.054L234.423 21.3095H209.926Z" fill="#002856"/>
<path d="M285.614 15.1887V32.2956C285.614 32.2956 277.606 22.0943 261.275 24.7623C260.332 24.9193 259.233 25.2331 258.448 25.8609C257.506 26.4887 256.564 27.5873 256.564 28.9998C256.564 30.4123 257.506 31.354 258.448 31.9817C259.39 32.4526 260.332 32.7665 261.432 32.9234C265.985 33.3942 285.143 36.2192 287.656 43.1248C289.854 48.9317 288.598 53.797 288.598 53.797C288.598 53.797 286.714 62.115 272.895 62.8997C263.159 63.5275 257.663 61.3303 255.307 60.0747C253.894 59.29 252.167 59.29 250.91 60.0747C250.91 60.0747 250.753 60.0747 250.596 60.2317C248.555 61.6442 246.671 62.7428 246.671 62.7428V45.322C246.671 45.322 252.952 54.7386 264.886 55.5233C264.886 55.5233 276.35 57.2497 277.449 51.4428C278.548 45.6359 270.225 45.6359 270.225 45.6359C270.225 45.6359 250.91 43.5956 247.299 37.0039C244.001 30.8831 246.514 25.8609 246.514 25.8609C246.514 25.8609 249.183 17.5429 261.275 16.9151C273.366 16.2873 278.234 18.3276 278.234 18.3276C278.234 18.3276 280.589 18.9554 281.846 18.3276C283.102 17.6998 285.928 15.1887 285.928 15.1887H285.614Z" fill="#002856"/>
<path d="M288.913 31.354L290.64 21.3096H323.617L325.501 31.354L320.633 28.529H311.84V53.64L315.294 58.8192H298.963L302.418 53.1692V28.529H294.095L288.913 31.354Z" fill="#002856"/>
<path d="M360.519 53.9539L348.428 25.2332L351.255 21.3096H334.766L336.179 23.6637L326.129 50.3442C326.129 50.3442 325.658 51.2859 325.501 51.7567C324.716 53.0123 323.146 55.6803 320.319 58.8192H333.981L331.94 54.5817L335.08 45.9498H346.858L352.354 58.8192H364.916L360.676 53.9539H360.519ZM337.122 40.4567L340.419 31.8248L344.345 40.4567H336.965H337.122Z" fill="#002856"/>
<path d="M393.181 45.0082C393.181 45.0082 401.504 43.1248 401.661 33.8651C401.818 24.6054 390.355 22.2513 390.355 22.2513C390.355 22.2513 387.685 20.6818 364.759 21.3096L367.742 26.6457V53.1692L364.759 58.8192H380.776L377.478 53.4831V46.4206H382.817C382.817 46.4206 387.057 67.2942 407 60.8595C407 60.8595 396.95 58.3484 393.338 45.0082H393.181ZM388.628 39.3582C387.214 40.1429 385.487 40.4568 383.917 40.4568H377.949V27.9013H385.644C386.743 28.2151 387.999 28.3721 388.942 28.8429C390.512 29.6276 392.082 31.6679 392.082 34.6498C392.082 37.3179 390.355 38.4165 388.785 39.2012L388.628 39.3582Z" fill="#002856"/>
</svg>