<svg xmlns="http://www.w3.org/2000/svg" width="263" height="57" viewBox="0 0 263 57" fill="none">
<path d="M28.0829 0C12.5849 0 0 12.5778 0 28.0672C0 43.5566 12.5849 56.1345 28.0829 56.1345C43.5809 56.1345 56.1657 43.5566 56.1657 28.0672C56.1657 12.5778 43.5809 0 28.0829 0ZM28.0829 53.3394C14.0997 53.3394 2.79665 42.0426 2.79665 28.0672C2.79665 14.0918 14.0997 2.79507 28.0829 2.79507C42.0661 2.79507 53.3691 14.0918 53.3691 28.0672C53.3691 42.0426 42.0661 53.3394 28.0829 53.3394Z" fill="black"/>
<path d="M38.1035 10.1322C38.1035 10.1322 37.8704 10.1322 37.7539 10.1322C37.4043 10.1322 37.0547 10.3651 37.0547 10.831V19.5656C37.0547 19.5656 36.8217 20.1479 36.4721 20.1479H19.4593C19.4593 20.1479 18.8767 19.915 18.8767 19.5656V10.831C18.8767 10.831 18.8767 10.598 18.8767 10.4816C18.6436 10.1322 18.294 10.1322 17.9444 10.2487C11.652 14.0919 7.80664 20.8467 7.80664 28.1837C7.80664 35.5208 11.652 42.2756 17.9444 46.1188C17.9444 46.1188 18.1775 46.1188 18.294 46.1188C18.6436 46.1188 18.9932 45.8859 18.9932 45.4201V36.6854C18.9932 36.6854 19.2262 36.1031 19.5758 36.1031H36.5887C36.5887 36.1031 37.1713 36.336 37.1713 36.6854V45.4201C37.1713 45.4201 37.1713 45.653 37.1713 45.7694C37.4043 46.1188 37.7539 46.1188 38.1035 46.0024C44.3959 42.1591 48.2413 35.4044 48.2413 28.0673C48.2413 20.7302 44.3959 13.9754 37.987 10.1322H38.1035ZM15.7304 39.1311V40.1793L15.1478 39.3641C9.90413 32.7257 9.90413 23.5253 15.1478 16.887L15.7304 16.1882V17.1199C15.7304 17.9351 15.6139 18.8668 15.6139 19.7985V36.4525C15.6139 37.3842 15.6139 38.1994 15.7304 39.1311ZM37.0547 32.2599C37.0547 32.2599 36.8217 32.8422 36.4721 32.8422H19.4593C19.4593 32.8422 18.8767 32.6093 18.8767 32.2599V23.8747C18.8767 23.8747 19.1097 23.2924 19.4593 23.2924H36.4721C36.4721 23.2924 37.0547 23.5253 37.0547 23.8747V32.2599ZM40.9001 39.2476L40.201 40.0628V39.0147C40.434 38.1994 40.434 37.2677 40.434 36.3361V19.682C40.434 18.7504 40.434 17.9351 40.3175 17.0034V16.5376V16.0717L41.0166 16.7705C43.5802 19.915 44.9785 23.9911 44.9785 27.9508C44.9785 31.9105 43.5802 36.1031 41.0166 39.2476H40.9001Z" fill="black"/>
<path d="M98.5817 27.6014C98.5817 27.6014 98.2321 27.4849 98.2321 27.252C98.2321 27.1356 98.2322 27.0191 98.4652 27.0191C98.6983 27.0191 104.058 25.0392 104.058 18.7503C104.058 11.7626 99.2809 7.57 91.3571 7.57H72.0137V48.7974H93.105C99.2809 48.7974 105.923 44.4883 105.923 37.3842C105.923 30.28 100.796 28.3002 98.6982 27.6014H98.5817ZM81.6854 15.9552C81.6854 15.9552 81.8019 15.7223 81.9184 15.7223H89.6092C92.1728 15.7223 93.9207 17.4692 93.9207 19.9149C93.9207 21.8948 92.4058 23.9911 89.4926 23.9911H82.0349C82.0349 23.9911 81.8019 23.8746 81.8019 23.7582V15.9552H81.6854ZM89.6092 40.6451H81.9184C81.9184 40.6451 81.6854 40.5286 81.6854 40.4122V32.1434C81.6854 32.1434 81.8019 31.9105 81.9184 31.9105H89.3761C93.1049 31.9105 95.2024 33.5409 95.2024 36.2195C95.2024 38.8982 93.2215 40.6451 89.6092 40.6451ZM171.061 23.8746L169.546 23.5252C166.167 22.8265 162.904 21.8948 162.904 19.0997C162.904 16.3046 165.584 14.9071 168.264 14.9071C171.411 14.9071 174.44 16.3046 176.887 18.7503L183.063 12.6943C180.383 9.78278 175.722 6.4054 168.264 6.4054C159.175 6.4054 153 11.5297 153 19.2162C153 27.3685 159.408 30.3965 164.769 31.5611L166.167 31.9105C171.411 33.0751 173.858 33.8903 173.858 36.8019C173.858 39.4805 171.527 41.2274 167.915 41.2274C163.72 41.2274 160.108 39.364 157.311 35.9866L151.019 42.1591C154.398 46.1188 158.826 49.7291 168.031 49.7291C175.955 49.7291 183.879 45.1871 183.879 36.336C183.879 27.3685 177.703 25.2722 170.945 23.8746H171.061ZM252.513 7.45355V22.5935C252.513 22.5935 252.396 22.8265 252.28 22.8265H239.579C239.579 22.8265 239.346 22.71 239.346 22.5935V7.45355H228.975V48.6809H239.346V32.4928C239.346 32.4928 239.462 32.2599 239.579 32.2599H252.28C252.28 32.2599 252.513 32.3763 252.513 32.4928V48.6809H263V7.45355H252.513ZM208 40.2957C203.339 40.2957 198.328 36.4525 198.328 27.8343C198.328 20.0314 203.106 15.9552 207.767 15.9552C211.146 15.9552 213.593 17.3528 215.458 20.4972L223.381 15.2565C219.303 9.31694 214.409 6.52186 207.65 6.52186C194.366 6.52186 188.423 17.2363 188.423 27.8343C188.423 40.7616 196.231 49.7291 207.534 49.7291C215.924 49.7291 219.653 46.7011 223.731 40.9945L215.691 35.6373C213.943 38.5488 211.962 40.2957 208.116 40.2957H208ZM129.112 6.4054C117.809 6.4054 110.118 15.14 110.118 28.0672C110.118 40.9945 117.692 49.7291 129.112 49.7291C140.531 49.7291 148.105 40.9945 148.105 28.0672C148.105 15.14 140.531 6.4054 129.112 6.4054ZM129.112 40.2957C123.518 40.2957 119.906 35.5208 119.906 28.0672C119.906 20.6137 123.518 15.9552 129.112 15.9552C134.705 15.9552 138.317 20.7302 138.317 28.0672C138.317 35.4043 134.705 40.2957 129.112 40.2957Z" fill="#F80000"/>
</svg>