<svg xmlns="http://www.w3.org/2000/svg" width="263" height="103" viewBox="0 0 263 103" fill="none">
<g clip-path="url(#clip0_954_1751)">
<path fill-rule="evenodd" clip-rule="evenodd" d="M253.132 47.999C251.018 50.8404 248.4 4.05912 115.188 10.5537C36.7514 14.3084 -12.9891 40.8956 24.6687 69.0049C-9.56564 51.0434 -5.63876 14.5113 92.1304 2.334C113.98 -0.405904 135.225 -0.608859 157.176 1.11626C216.481 5.68277 255.851 22.3251 253.132 47.999ZM86.1897 64.134L85.6863 66.0621H82.9677L83.4711 64.134H86.1897ZM85.1828 68.0916L82.7663 77.3261H80.0477L82.4642 68.0916H85.1828ZM143.381 77.3261L146.905 64.134H154.457C156.169 64.134 157.377 64.337 158.082 64.6414C158.787 65.0473 159.189 65.6562 159.189 66.5695C159.189 67.0769 159.189 67.6857 158.887 68.3961C158.384 70.3242 157.679 71.5419 156.873 72.1508C156.068 72.7596 154.457 73.0641 152.141 73.0641H151.436H147.811L146.704 77.3261H143.583H143.381ZM148.214 70.8315H151.738C153.148 70.8315 154.054 70.7301 154.457 70.4256C154.86 70.1212 155.262 69.5123 155.464 68.599C155.665 67.9902 155.766 67.4828 155.766 67.1783C155.766 66.7724 155.565 66.468 155.262 66.3665C154.96 66.265 154.256 66.1636 153.249 66.1636H149.422L148.214 70.8315ZM161.404 70.7301H158.585C158.887 69.6138 159.391 68.9035 160.096 68.4976C160.8 68.0916 162.21 67.9902 164.123 67.9902C165.734 67.9902 166.942 68.0916 167.647 68.3961C168.352 68.7005 168.654 69.2079 168.654 70.0197C168.654 70.3242 168.654 70.8315 168.453 71.2375L166.842 77.2246H164.123L164.627 76.0069C164.123 76.5143 163.62 76.9202 163.016 77.1232C162.411 77.3261 161.606 77.4276 160.599 77.4276C159.29 77.4276 158.384 77.3261 157.78 77.0217C157.276 76.7173 156.974 76.2099 156.974 75.601C156.974 75.2966 156.974 74.9921 157.075 74.5862C157.377 73.5714 157.88 72.7596 158.585 72.3537C159.391 71.9478 160.498 71.6434 162.009 71.6434C163.116 71.6434 163.922 71.6434 164.324 71.8463C164.727 71.9478 165.029 72.2522 165.231 72.6581L165.633 71.136C165.633 71.136 165.734 70.5271 165.734 70.2227C165.734 69.8168 165.633 69.6138 165.331 69.5123C165.029 69.4109 164.526 69.3094 163.821 69.3094C162.915 69.3094 162.311 69.3094 162.009 69.5123C161.707 69.7153 161.505 70.0197 161.304 70.6286L161.404 70.7301ZM162.713 73.1655C161.707 73.1655 161.102 73.1655 160.7 73.47C160.297 73.6729 160.096 73.9774 159.894 74.4847C159.894 74.6877 159.894 74.8907 159.894 75.0936C159.894 75.398 160.096 75.601 160.398 75.804C160.7 75.9054 161.304 76.0069 162.109 76.0069C163.116 76.0069 163.72 76.0069 164.123 75.7025C164.526 75.4995 164.828 75.0936 164.929 74.5862C164.929 74.5862 164.929 74.4847 164.929 74.3833V74.1803C164.929 74.1803 164.727 73.5714 164.425 73.47C164.123 73.3685 163.519 73.267 162.713 73.267V73.1655ZM196.545 74.3833H199.264V74.5862C198.962 75.601 198.458 76.3113 197.552 76.7173C196.746 77.1232 195.337 77.3261 193.524 77.3261C191.712 77.3261 190.504 77.1232 189.9 76.8187C189.195 76.5143 188.893 75.9054 188.893 74.8907C188.893 74.3833 188.993 73.5714 189.295 72.5567C189.799 70.6286 190.504 69.4109 191.309 68.802C192.215 68.1931 193.625 67.7872 195.739 67.7872C197.451 67.7872 198.559 67.9902 199.264 68.2946C199.968 68.599 200.27 69.2079 200.27 70.1212C200.27 70.6286 200.17 71.3389 199.968 72.2522L199.767 72.9626H192.014V73.3685C192.014 73.3685 191.813 73.8759 191.813 73.9774C191.813 74.1803 191.813 74.2818 191.813 74.4847C191.813 74.8907 192.014 75.1951 192.316 75.398C192.618 75.601 193.222 75.601 194.028 75.601C195.035 75.601 195.639 75.601 196.042 75.2966C196.344 75.0936 196.646 74.7892 196.847 74.1803L196.545 74.3833ZM192.316 71.7448H197.35V71.3389C197.35 71.3389 197.552 70.7301 197.552 70.5271C197.552 70.1212 197.35 69.9182 197.048 69.8168C196.746 69.7153 196.142 69.6138 195.337 69.6138C194.229 69.6138 193.524 69.7153 193.222 70.0197C192.92 70.2227 192.618 70.8315 192.316 71.7448ZM120.525 68.0916H123.243L122.74 69.4109C123.243 68.9035 123.847 68.4976 124.351 68.2946C124.854 68.0916 125.559 67.9902 126.264 67.9902C127.069 67.9902 127.674 68.0916 128.076 68.3961C128.479 68.7005 128.681 69.1064 128.681 69.7153C128.681 70.1212 128.681 70.5271 128.479 71.0345L128.278 71.7448H125.66V71.2375C125.66 71.2375 125.962 70.6286 125.962 70.5271C125.962 70.0197 125.559 69.8168 124.854 69.8168C124.15 69.8168 123.545 70.0197 123.143 70.3242C122.74 70.6286 122.438 71.2375 122.236 72.0493L120.827 77.4276H118.108L120.525 68.1931V68.0916ZM114.987 74.3833H117.705V74.5862C117.403 75.601 116.9 76.3113 115.994 76.7173C115.188 77.1232 113.779 77.3261 111.966 77.3261C110.154 77.3261 108.945 77.1232 108.341 76.8187C107.636 76.5143 107.334 75.9054 107.334 74.8907C107.334 74.3833 107.435 73.5714 107.737 72.5567C108.241 70.6286 108.945 69.4109 109.751 68.802C110.657 68.1931 112.067 67.7872 114.181 67.7872C115.893 67.7872 117.001 67.9902 117.705 68.2946C118.31 68.599 118.712 69.2079 118.712 70.1212C118.712 70.6286 118.612 71.3389 118.41 72.2522L118.209 72.9626H110.456V73.3685C110.456 73.3685 110.254 73.8759 110.254 73.9774C110.254 74.1803 110.254 74.2818 110.254 74.4847C110.254 74.8907 110.456 75.1951 110.758 75.398C111.06 75.601 111.664 75.601 112.47 75.601C113.476 75.601 114.081 75.601 114.483 75.2966C114.785 75.0936 115.087 74.7892 115.289 74.1803L114.987 74.3833ZM110.758 71.7448H115.792V71.3389C115.792 71.3389 115.994 70.7301 115.994 70.5271C115.994 70.1212 115.792 69.9182 115.49 69.8168C115.188 69.7153 114.584 69.6138 113.779 69.6138C112.671 69.6138 111.966 69.7153 111.664 70.0197C111.362 70.2227 111.06 70.8315 110.758 71.7448ZM101.293 64.134L99.8834 69.6138C100.387 69.0049 100.89 68.599 101.494 68.2946C102.099 68.0916 102.904 67.9902 104.012 67.9902C105.22 67.9902 106.025 68.0916 106.529 68.3961C107.032 68.7005 107.334 69.2079 107.334 69.9182C107.334 70.2227 107.334 70.6286 107.133 71.0345L105.522 77.3261H102.803L104.314 71.6434V71.3389C104.314 71.3389 104.515 70.933 104.515 70.7301C104.515 70.1212 103.911 69.8168 102.803 69.8168C101.797 69.8168 100.991 70.0197 100.488 70.3242C99.9841 70.6286 99.6821 71.2375 99.38 72.1508L97.9703 77.4276H95.2517L98.7759 64.2355H101.494L101.293 64.134ZM95.4531 70.6286H92.8352V70.4256C92.8352 70.4256 92.8352 70.2227 92.8352 70.1212C92.8352 69.8168 92.7345 69.6138 92.4324 69.6138C92.1304 69.6138 91.6269 69.5123 90.7207 69.5123C89.7138 69.5123 89.1097 69.5123 88.8076 69.7153C88.5056 69.8168 88.3042 70.1212 88.2035 70.4256C88.2035 70.7301 88.1028 71.0345 88.1028 71.136C88.1028 71.3389 88.3042 71.5419 88.6063 71.6434C88.9083 71.6434 89.7138 71.6434 90.8214 71.6434C92.4324 71.6434 93.4393 71.7448 94.0435 71.9478C94.6476 72.1508 94.9497 72.6581 94.9497 73.267C94.9497 73.3685 94.9497 73.5714 94.9497 73.6729C94.9497 73.8759 94.9497 74.0788 94.849 74.2818C94.5469 75.398 93.9428 76.2099 93.0366 76.6158C92.1304 77.0217 90.7207 77.2246 88.7069 77.2246C86.9952 77.2246 85.8876 77.1232 85.1828 76.8187C84.478 76.5143 84.1759 76.1084 84.1759 75.398C84.1759 75.2966 84.1759 75.0936 84.1759 74.9921C84.1759 74.7892 84.1759 74.6877 84.1759 74.4847V74.1803H87.0959V74.4847C87.0959 74.4847 86.9952 74.7892 86.9952 74.8907C86.9952 75.1951 87.1966 75.398 87.4987 75.4995C87.8007 75.601 88.4049 75.7025 89.2104 75.7025C90.2173 75.7025 90.9221 75.7025 91.2242 75.4995C91.6269 75.2966 91.8283 74.9921 92.0297 74.4847C92.0297 74.2818 92.0297 74.0788 92.0297 73.9774C92.0297 73.7744 91.929 73.5714 91.7276 73.47C91.5262 73.3685 91.1235 73.267 90.62 73.267C88.5056 73.267 86.9952 73.1655 86.2904 72.9626C85.5856 72.7596 85.1828 72.2522 85.1828 71.5419C85.1828 71.2375 85.1828 70.933 85.2835 70.5271C85.5856 69.4109 86.089 68.7005 86.8945 68.2946C87.7001 67.8887 89.1097 67.6857 91.2242 67.6857C92.8352 67.6857 93.9428 67.7872 94.5469 67.9902C95.151 68.1931 95.4531 68.7005 95.4531 69.3094C95.4531 69.6138 95.4531 69.9182 95.3524 70.3242L95.4531 70.6286ZM74.3084 66.1636L73.4022 69.7153H80.6518L80.0477 71.8463H72.7981L71.3884 77.2246H68.2671L71.7912 64.0325H82.5649L81.9608 66.1636H74.3084ZM180.133 68.0916L174.595 77.8335C173.789 79.1527 173.084 80.1675 172.279 80.5734C171.574 81.0808 170.467 81.2838 169.057 81.2838H168.654C168.654 81.2838 168.453 81.2838 168.352 81.2838C168.251 81.2838 168.151 81.2838 168.05 81.2838L168.453 79.6601H168.956C169.56 79.6601 170.164 79.4572 170.567 79.1527C170.97 78.8483 171.473 78.1379 171.876 77.2246H170.467L169.158 67.9902H172.078L172.48 71.9478L172.682 73.8759V74.8907L172.782 75.9054L173.386 74.8907L173.89 73.8759L174.897 71.9478L177.011 67.9902H179.831L180.133 68.0916ZM184.563 64.134L182.549 71.6434H183.254L187.282 68.0916H190.504L185.368 72.4552L188.893 77.3261H185.469L182.851 73.267H182.146L181.039 77.3261H178.32L181.844 64.134H184.563ZM205.808 64.134L202.284 77.3261H199.566L203.09 64.134H205.808ZM134.823 70.0197C136.232 69.8168 137.642 69.6138 137.944 69.5123C138.951 69.3094 139.253 68.2946 139.354 67.4828C139.354 67.1783 139.152 66.7724 138.85 66.5695C138.548 66.468 137.944 66.3665 137.038 66.3665C135.829 66.3665 135.024 66.3665 134.621 66.671C134.319 66.7724 134.017 67.0769 133.916 67.5843C133.614 68.4976 133.614 68.802 133.916 69.2079L134.52 69.7153L134.823 69.9182V70.0197ZM138.447 74.9921L133.614 71.136C132.507 71.3389 131.802 71.5419 131.5 71.7448C131.198 72.0493 130.795 72.6581 130.493 73.5714C130.493 73.7744 130.392 73.9774 130.292 74.2818C130.292 74.4847 130.292 74.7892 130.292 74.9921C130.292 75.4995 130.594 75.804 131.097 76.0069C131.601 76.1084 132.607 76.2099 134.218 76.2099C135.628 76.2099 136.635 76.2099 137.138 76.0069C137.642 75.804 138.145 75.4995 138.447 74.9921ZM135.729 70.8315L139.152 73.6729L139.354 72.9626L139.555 72.0493H141.166V72.3537L140.965 72.9626C140.864 73.3685 140.763 73.6729 140.663 73.8759C140.663 74.0788 140.461 74.2818 140.26 74.5862L142.374 76.3113L141.166 77.2246L139.354 75.804C138.85 76.4128 138.145 76.8187 137.44 77.0217C136.736 77.2246 135.527 77.3261 133.916 77.3261C131.802 77.3261 130.392 77.2246 129.587 76.9202C128.781 76.6158 128.378 76.1084 128.378 75.1951C128.378 74.9921 128.378 74.7892 128.378 74.4847C128.378 74.2818 128.479 73.9774 128.58 73.5714C128.882 72.4552 129.285 71.6434 129.687 71.2375C130.09 70.8315 130.896 70.5271 132.003 70.3242H132.507C131.903 69.7153 131.6 69.3094 131.6 68.802C131.6 68.599 131.601 68.3961 131.701 68.0916C132.003 66.9754 132.507 66.1636 133.212 65.7577C133.916 65.3517 135.225 65.1488 136.937 65.1488C138.246 65.1488 139.253 65.2503 139.756 65.5547C140.36 65.7577 140.562 66.265 140.562 66.8739C140.562 67.1783 140.562 67.4828 140.36 67.8887C140.058 68.802 139.756 69.9182 137.944 70.1212C137.138 70.2227 136.132 70.4256 135.225 70.5271L135.729 70.8315ZM48.532 77.4276L51.0492 65.4532H52.5595L51.6533 69.7153C51.6533 69.7153 52.5596 69.0049 52.9623 68.802C53.3651 68.599 53.7678 68.4976 54.1706 68.4976C54.9761 68.4976 55.6809 68.802 56.1844 69.4109C56.6878 70.0197 56.9899 70.933 56.9899 72.0493C56.9899 72.8611 56.8892 73.47 56.6878 74.1803C56.4864 74.7892 56.1844 75.398 55.8823 75.804C55.5802 76.2099 55.2782 76.6158 54.8754 76.8187C54.5733 77.1232 54.1706 77.2246 53.8685 77.4276C53.4657 77.5291 53.1637 77.6306 52.8616 77.6306C52.2575 77.6306 51.754 77.5291 51.3513 77.2246C50.9485 76.9202 50.5458 76.4128 50.3444 75.804L50.0423 77.4276H48.7334H48.532ZM50.6465 73.8759V74.1803C50.6465 74.8907 50.8478 75.4995 51.1499 75.9054C51.452 76.3113 51.9554 76.5143 52.4589 76.5143C52.9623 76.5143 53.4657 76.3113 53.8685 76.0069C54.2713 75.601 54.674 75.0936 54.8754 74.2818C55.1775 73.47 55.2782 72.8611 55.2782 72.1508C55.2782 71.4404 55.0768 70.8315 54.7747 70.4256C54.4726 70.0197 53.9692 69.8168 53.4658 69.8168C52.9623 69.8168 52.4589 70.0197 52.0561 70.4256C51.6533 70.8315 51.2506 71.4404 50.9485 72.3537C50.7471 72.9626 50.6465 73.5714 50.6465 73.9774V73.8759ZM57.1912 80.7764V79.3557C57.1912 79.3557 57.8961 79.4572 58.1981 79.4572C58.5002 79.4572 58.7016 79.4572 58.903 79.2542C59.1043 79.0512 59.4064 78.7468 59.7085 78.2394L60.2119 77.4276L58.8023 68.802H60.2119L60.8161 73.1655C60.9167 73.9774 61.0174 74.8907 61.1181 75.804L64.9443 68.802H66.4546L61.0174 78.6453C60.514 79.5586 60.0105 80.269 59.6078 80.5734C59.205 80.8779 58.7016 81.0808 58.1981 81.0808C57.8961 81.0808 57.4933 81.0808 57.1912 80.8778V80.7764ZM166.137 59.2631C180.133 58.9586 194.229 59.2631 208.225 58.9586C225.04 57.5379 236.317 42.9251 215.575 41.0985C208.426 40.3882 201.277 39.6778 194.229 38.9675C186.073 37.6483 187.684 33.8936 195.337 32.4729C208.326 31.0522 215.172 32.3714 215.777 36.532H230.276C230.276 33.1833 228.161 30.2404 221.919 28.7182C210.44 25.8769 196.243 26.4857 184.966 29.8345C169.56 34.2995 174.192 43.534 187.382 44.3458C193.826 44.7517 200.371 45.0562 206.815 45.5636C213.159 46.2739 213.763 49.9271 209.534 52.3626C206.715 53.9862 204.298 53.8847 201.277 53.8847C190.202 53.9862 179.126 54.1892 168.05 54.2907C167.446 56.0158 166.741 57.6394 166.137 59.3645V59.2631ZM157.679 37.3439L171.977 37.0394C171.675 33.3862 168.855 31.1537 164.627 29.6315C152.745 25.4709 135.024 26.5872 122.941 30.7478C118.41 32.27 114.584 34.5025 111.563 37.4453C104.918 44.2443 104.213 53.6818 114.987 57.0306C123.243 59.5675 138.145 60.0749 161.404 59.2631C162.311 57.4365 163.116 55.6099 164.022 53.7833C144.589 54.1892 121.129 57.0306 121.532 45.1576C120.827 34.604 149.523 28.6168 157.578 37.3439H157.679ZM48.6327 28.9212C44.5044 38.9675 40.2755 48.9123 36.1472 58.9586C49.2368 58.7557 61.5209 58.6542 74.3084 58.4512C79.0408 58.4512 83.3704 58.4512 88.0021 57.132C105.522 51.9567 115.289 33.6907 96.46 29.6315C93.0366 28.9212 89.6131 29.0227 86.089 29.0227C73.5029 29.0227 61.5209 28.9212 48.7334 28.8197L48.6327 28.9212ZM60.9167 33.4877C57.9968 40.4897 55.0768 47.4916 52.2575 54.3921C61.4202 54.2907 60.1112 54.1892 68.9719 54.0877C72.2946 54.0877 75.3153 54.0877 78.4367 53.1744C90.62 49.6227 97.4669 36.8365 84.2766 33.9951C81.8601 33.4877 79.4435 33.5892 77.027 33.5892C68.2671 33.5892 69.7774 33.5892 60.8161 33.4877H60.9167ZM240.244 18.469C283.842 49.4197 239.64 81.6897 169.46 91.736C145.496 95.1862 122.035 95.1862 97.9703 92.9537C39.9734 87.6769 4.83291 71.7448 0.402588 43.2296C-3.32291 66.1636 18.2246 90.4168 86.7938 99.9557C111.463 103.406 134.923 104.015 159.693 101.579C283.339 89.7064 275.787 34.9084 240.244 18.469Z" fill="black"/>
</g>
<defs>
<clipPath id="clip0_954_1751">
<rect width="263" height="103" fill="white"/>
</clipPath>
</defs>
</svg>