<svg xmlns="http://www.w3.org/2000/svg" width="262" height="83" viewBox="0 0 262 83" fill="none">
<path d="M262 0H0V82.112H262V0Z" fill="#EA7818"/>
<path d="M62.9505 58.8336C62.6317 57.5581 61.5162 56.6014 60.0818 56.6014C58.4882 56.6014 57.0539 57.8769 57.0539 59.6308C57.0539 60.1091 57.0539 60.428 57.3726 60.9063C56.0977 61.0658 47.9699 61.5441 43.3483 44.6434L45.1013 43.5273C45.1013 45.1217 46.3762 46.3972 48.1293 46.3972C49.8823 46.3972 51.1573 45.1217 51.1573 43.3679C51.1573 41.614 49.8823 40.3385 48.1293 40.3385C47.0137 40.3385 45.2607 40.3385 42.5515 41.614C42.5515 41.614 39.2047 26.786 44.942 21.6839C44.942 23.1189 46.3763 24.3944 47.8106 24.3944C49.4043 24.3944 50.8385 23.1189 50.8385 21.365C50.8385 19.6112 49.5636 18.3357 47.8106 18.3357C47.8106 18.3357 47.8106 18.3357 47.6512 18.3357C46.2169 18.3357 43.9857 18.4951 41.7546 20.7273C38.4079 24.235 37.9298 33.4825 37.9298 33.4825C37.4517 32.6853 36.4955 32.0475 35.3799 32.0475C34.2643 32.0475 33.4675 32.5259 32.83 33.4825C32.5113 30.4531 32.83 19.2923 23.7461 18.3357C23.7461 18.3357 23.4273 18.3357 23.1086 18.3357C21.5149 18.3357 20.0806 19.6112 20.0806 21.365C20.0806 23.1189 21.3556 24.3944 23.1086 24.3944C24.7023 24.3944 25.8179 23.2783 25.9772 21.6839C26.7741 22.6406 31.2363 28.5398 28.2084 41.4545C28.2084 41.4545 24.2242 39.8602 22.1524 40.4979C20.7181 40.8168 19.7619 41.9329 19.7619 43.3679C19.7619 44.9623 21.0368 46.3972 22.7899 46.3972C24.5429 46.3972 25.6585 45.1217 25.8179 43.5273L27.2522 44.3245C27.2522 44.3245 23.4274 61.2252 13.0685 60.5874C13.0685 60.2686 13.2279 59.9497 13.2279 59.4714C13.2279 57.877 11.9529 56.442 10.1999 56.442C8.44682 56.442 7.17188 57.7175 7.17188 59.4714C7.17188 60.7469 7.96873 61.7036 9.0843 62.1819C11.6342 63.4574 23.1086 67.9217 29.9614 47.5133C29.9614 47.5133 32.5113 50.2238 35.0612 69.9944C35.0612 69.9944 37.611 50.2238 40.0015 47.5133C40.0015 47.5133 44.3045 63.2979 55.9383 63.1385C55.9383 63.1385 58.8069 63.4574 60.7193 62.1819C61.8349 61.7036 62.6317 60.7469 62.6317 59.4714V59.1525C62.6317 59.1525 62.6317 58.993 62.6317 58.8336H62.9505ZM35.3799 50.8615C35.3799 50.8615 33.6269 45.9189 31.3957 44.0056C31.3957 44.0056 32.3519 40.0196 32.6707 36.6713C33.1488 37.628 34.105 38.2658 35.2205 38.2658C36.4955 38.2658 37.4517 37.4686 37.9298 36.5119C38.0892 38.5847 38.4079 41.2951 39.2047 43.8462C39.2047 43.8462 36.4955 46.3972 35.3799 51.021V50.8615Z" fill="white"/>
<path d="M69.9629 28.3804H80.7999V30.772H79.3655C78.4093 30.772 77.4531 31.5692 77.4531 32.6853V39.7006H91.9556V32.3664C91.9556 31.4097 91.1587 30.4531 90.0432 30.4531H87.9714V28.3804H99.2865V30.4531H98.0115C97.0553 30.4531 96.0991 31.2503 96.0991 32.3664V49.7454C96.0991 50.7021 96.896 51.6587 98.0115 51.6587H99.6052V54.0503H87.4933V51.6587H89.5651C90.5213 51.6587 91.4775 50.8615 91.4775 49.7454V42.0923H77.1344V49.586C77.1344 50.5427 77.9312 51.4993 79.0468 51.4993H80.6405V54.0503H69.166V51.4993H70.441C71.3972 51.4993 72.3534 50.7021 72.3534 49.586V32.6853C72.3534 31.7286 71.5566 30.772 70.441 30.772H69.6441V28.3804H69.9629Z" fill="white"/>
<path d="M106.936 28.3804H127.176L127.654 34.5985H125.901C125.901 34.5985 125.582 30.6125 124.148 30.6125C122.714 30.6125 115.383 30.6125 115.383 30.6125V39.3818H122.236C123.032 39.3818 123.829 38.744 123.829 37.7874V36.3524H125.742V44.9622H123.989V43.5272C123.989 42.73 123.192 41.9329 122.236 41.9329H115.223V51.021H124.626C124.626 51.021 126.379 51.3398 127.176 46.5566H129.088L128.451 53.572H106.299V51.4993H109.486C110.442 51.4993 111.08 50.7021 111.239 49.9049V31.7286C111.239 30.772 110.602 29.9748 109.646 29.9748H107.096V28.2209L106.936 28.3804Z" fill="white"/>
<path d="M136.259 46.7161H138.649C138.649 46.7161 139.924 52.6154 145.343 52.1371C150.761 51.6588 151.239 46.0783 144.865 42.8895C141.837 41.2951 139.924 39.7008 138.649 38.2658C137.374 36.6714 136.737 34.5986 137.215 32.6853C137.693 30.1343 139.765 27.1049 146.618 27.9021C147.415 27.9021 147.893 28.221 148.371 28.3804C149.008 28.5399 149.327 28.6993 149.805 28.5399C150.124 28.5399 150.124 28.221 150.283 27.9021C150.761 27.9021 151.399 27.9021 151.877 27.9021L152.674 34.4392H150.602C150.602 34.4392 149.646 30.4532 145.821 29.8154C144.546 29.656 143.59 29.8154 142.793 30.1343C141.199 30.9315 140.88 33.0042 141.996 34.4392C142.474 35.077 143.112 35.7147 144.227 36.3525C147.574 38.2658 151.399 41.614 151.399 41.614C151.399 41.614 154.586 44.3245 153.63 48.47C152.992 50.7022 151.717 52.1371 151.399 52.456C149.964 53.891 148.211 54.2099 147.415 54.2099C145.183 54.5287 141.837 54.2098 140.562 53.4126C140.562 53.4126 139.924 53.0938 139.605 53.2532C139.446 53.2532 139.287 53.7315 139.287 54.0504H137.534L136.418 46.7161H136.259Z" fill="white"/>
<path d="M158.571 27.7427L157.934 35.3959H159.846C159.846 35.3959 160.324 30.7721 162.236 30.7721C164.308 30.7721 168.93 30.7721 168.93 30.7721V49.905C168.771 51.0211 167.814 51.8183 166.858 51.8183H164.149V53.7315H177.855V51.9777H175.145C174.03 51.9777 173.233 51.0211 173.233 49.905V30.7721H179.926C179.926 30.7721 181.679 30.7721 181.998 35.2364H184.07L183.273 27.7427H181.361C181.361 27.7427 181.361 28.221 180.086 28.3805C178.492 28.3805 160.962 28.3805 160.962 28.3805C160.962 28.3805 160.483 28.3804 160.483 27.7427H158.73H158.571Z" fill="white"/>
<path d="M209.09 49.7455L200.803 27.7427H196.341V29.1776C196.341 29.1776 190.444 46.5567 189.488 49.4266C188.532 51.9777 185.345 51.8183 185.345 51.8183V53.7315H195.704V51.8183H193.313C192.516 51.8183 191.879 51.0211 192.198 50.2239L194.588 42.8896H202.238L204.947 50.3833C205.266 51.1805 204.628 51.9777 203.831 51.9777H200.963V53.891H212.915V52.1371C210.047 52.1371 209.25 49.905 209.25 49.905L209.09 49.7455ZM195.544 40.1791L198.253 33.0042L201.281 40.1791H195.704H195.544Z" fill="white"/>
<path d="M216.899 27.7427H223.912L241.92 46.3973V32.2071C241.92 31.2504 241.123 30.2938 240.008 30.2938H237.936V28.0616H248.454V30.2938H246.542C245.586 30.2938 244.629 31.091 244.629 32.2071V53.7315H242.398L223.433 33.4826V49.7455C223.433 50.7022 224.23 51.6588 225.346 51.6588H227.577V53.7315H217.059V51.6588H218.812C219.768 51.6588 220.724 50.8616 220.724 49.905L221.043 32.0476C221.043 31.0909 220.246 30.2938 219.29 30.2938H217.059V27.9022L216.899 27.7427Z" fill="white"/>
</svg>