<svg xmlns="http://www.w3.org/2000/svg" width="261" height="115" viewBox="0 0 261 115" fill="none">
<path d="M57.532 115C89.306 115 115.064 89.2564 115.064 57.5C115.064 25.7436 89.306 0 57.532 0C25.7579 0 0 25.7436 0 57.5C0 89.2564 25.7579 115 57.532 115Z" fill="#B50A3E"/>
<path d="M98.3333 54.77C98.3333 83.6053 75.2864 106.981 49.3373 106.981C23.3881 106.981 2.56055 83.6053 2.56055 54.77C2.56055 25.9347 28.8511 2.55933 54.8002 2.55933C80.7494 2.55933 98.3333 25.9347 98.3333 54.77Z" fill="url(#paint0_linear_954_1682)"/>
<path opacity="0.8" d="M71.3601 55.4525V60.7418H101.406C100.724 71.6617 96.1143 81.5579 88.7734 88.8947C80.9203 96.7433 69.9944 101.691 58.0441 101.691C46.0939 101.691 35.1679 96.9139 27.3148 88.8947C19.4618 81.046 14.511 70.1261 14.511 58.1825C14.511 46.2389 19.2911 35.319 27.3148 27.4703C35.1679 19.6217 46.0939 14.6736 58.0441 14.6736H60.4342V9.38428H58.0441C31.0707 9.38428 9.21875 31.224 9.21875 58.1825C9.21875 85.141 31.0707 106.981 58.0441 106.981C85.0176 106.981 106.869 85.141 106.869 58.1825V55.6231H71.5308L71.3601 55.4525ZM32.4364 39.9258C32.4364 43.8502 35.68 47.092 39.6066 47.092C43.5331 47.092 46.7767 43.8502 46.7767 39.9258C46.7767 36.0015 43.5331 32.7596 39.6066 32.7596C35.68 32.7596 32.4364 36.0015 32.4364 39.9258ZM55.1419 32.9303V83.776H71.5308V78.4866H60.4342V32.9303H55.1419Z" fill="#4D4D4D"/>
<path d="M70.5066 54.9408V60.2301H100.553C99.8701 71.15 95.2607 81.0462 87.9199 88.3829C80.0668 96.2316 69.1408 101.18 57.1906 101.18C45.2403 101.18 34.3143 96.4022 26.4613 88.3829C18.6083 80.5343 13.6575 69.6144 13.6575 57.6708C13.6575 45.7272 18.4376 34.8073 26.4613 26.9586C34.3143 19.1099 45.2403 14.1619 57.1906 14.1619H59.5807V8.87256H57.1906C30.2171 8.87256 8.36523 30.7123 8.36523 57.6708C8.36523 84.6292 30.2171 106.469 57.1906 106.469C84.164 106.469 106.016 84.6292 106.016 57.6708V55.1114H70.6773L70.5066 54.9408ZM31.5828 39.4141C31.5828 43.3384 34.8265 46.5803 38.753 46.5803C42.6796 46.5803 45.9232 43.3384 45.9232 39.4141C45.9232 35.4898 42.6796 32.2479 38.753 32.2479C34.8265 32.2479 31.5828 35.4898 31.5828 39.4141ZM54.2884 32.4186V83.2643H70.6773V77.9749H59.5807V32.4186H54.2884Z" fill="url(#paint1_linear_954_1682)"/>
<path d="M260.516 88.5535C251.638 93.5015 241.908 95.3784 232.006 95.3784C205.715 95.3784 195.301 80.5342 195.301 57.3294C195.301 34.1247 206.569 18.9392 232.006 18.9392C242.761 18.9392 252.663 21.4986 260.687 31.0535L249.931 40.9496C245.834 35.4897 239.688 32.7597 232.006 32.7597C216.983 32.7597 211.861 43.6796 211.861 57.3294C211.861 70.9793 215.617 81.046 232.006 81.046C238.493 81.046 242.249 80.3635 244.98 78.6573V65.69H231.152V52.3813H260.516V88.5535ZM140.501 20.6454V94.3547H192.911V79.6811H157.744V20.6454H140.501Z" fill="#6E6E70"/>
<defs>
<linearGradient id="paint0_linear_954_1682" x1="57.0025" y1="9.09419" x2="57.0025" y2="112.236" gradientUnits="userSpaceOnUse">
<stop offset="0.06" stop-color="#E3838D"/>
<stop offset="0.39" stop-color="#CE3D61"/>
<stop offset="0.63" stop-color="#B50A3E"/>
</linearGradient>
<linearGradient id="paint1_linear_954_1682" x1="63.3535" y1="15.4416" x2="63.3535" y2="112.236" gradientUnits="userSpaceOnUse">
<stop offset="0.08" stop-color="white"/>
<stop offset="0.35" stop-color="#FCFCFC"/>
<stop offset="0.53" stop-color="#F3F3F3"/>
<stop offset="0.68" stop-color="#E4E4E4"/>
<stop offset="0.81" stop-color="#CFCFCF"/>
<stop offset="0.94" stop-color="#B3B3B3"/>
</linearGradient>
</defs>
</svg>