<svg xmlns="http://www.w3.org/2000/svg" width="268" height="54" viewBox="0 0 268 54" fill="none">
<path d="M0.144478 0.818604H0V53.6668H40.4528V42.6929H13.7251V0.818604H0.144478Z" fill="black"/>
<path d="M57.4999 0.818848H17.4805V11.3596H44.3527V53.3783H57.4999V0.818848Z" fill="black"/>
<path d="M88.9957 0.529785H70.5029V41.1045H108.789V32.0077H88.9957V0.529785Z" fill="black"/>
<path d="M134.363 35.04L152.133 0.529785H138.263L128.15 23.344L118.615 0.529785H100.267L118.615 37.4947C113.703 45.8695 108.791 46.8803 102.145 47.4578V53.2336C103.156 53.2336 104.601 53.2336 105.757 53.2336C121.938 53.2336 127.283 47.891 134.363 35.1844" fill="black"/>
<path d="M156.179 41.1045H169.615V20.6006L193.164 41.1045H202.699V0.529785H189.263V19.7342L167.592 0.529785H156.179V41.1045Z" fill="black"/>
<path d="M261.645 41.1045L244.019 18.8678L260.778 0.529785H245.319L236.651 10.6374L229.283 0.529785H209.49L226.104 21.3225H225.96L207.756 41.1045H224.081L233.472 30.275V30.1306L241.996 41.1045H261.645Z" fill="black"/>
<path d="M95.6413 48.0354H70.0693V53.378H95.6413V48.0354Z" fill="black"/>
<path d="M125.692 52.9447H261.643V48.1797H132.194C132.194 48.1797 130.605 51.7895 125.837 52.9447" fill="black"/>
<path d="M40.5973 15.4023H17.3369V38.6498H40.5973V15.4023Z" fill="black"/>
<path d="M265.833 50.6345C265.833 50.6345 266.411 50.3457 266.411 49.9125C266.411 49.6237 266.411 49.4793 266.122 49.3349C265.978 49.3349 265.689 49.0461 265.255 49.0461C264.967 49.0461 264.678 49.0461 264.389 49.0461V51.934H264.822V50.6345H265.111C265.111 50.6345 265.689 50.6345 265.689 51.0677C265.689 51.3564 265.689 51.6452 265.833 51.7896H266.267C266.267 51.7896 266.267 51.5008 266.122 51.0677C266.122 50.6345 265.833 50.4901 265.689 50.3457M265.255 50.4901H264.967V49.4793C264.967 49.4793 265.111 49.4793 265.255 49.4793C265.833 49.4793 265.978 49.7681 265.978 49.9125C265.978 50.3457 265.689 50.4901 265.255 50.4901Z" fill="black"/>
<path d="M265.399 47.8911C263.955 47.8911 262.799 49.0463 262.799 50.4902C262.799 51.9341 263.955 53.0893 265.399 53.0893C266.844 53.0893 268 51.9341 268 50.4902C268 49.0463 266.844 47.8911 265.544 47.8911M265.399 52.6561C264.244 52.6561 263.232 51.6454 263.232 50.4902C263.232 49.3351 264.099 48.3243 265.255 48.3243C266.411 48.3243 267.278 49.3351 267.278 50.4902C267.278 51.7897 266.411 52.6561 265.255 52.6561" fill="black"/>
</svg>