<svg xmlns="http://www.w3.org/2000/svg" width="263" height="63" viewBox="0 0 263 63" fill="none">
<g clip-path="url(#clip0_954_1715)">
<path fill-rule="evenodd" clip-rule="evenodd" d="M74.26 52.8839C74.26 58.4929 69.7011 63 64.0277 63H10.5362C4.55894 63 0 58.4929 0 52.8839V10.1161C0 4.50715 4.55894 0 10.5362 0H64.0277C69.7011 0 74.26 4.50715 74.26 10.1161V52.9841V52.8839Z" fill="white"/>
<path fill-rule="evenodd" clip-rule="evenodd" d="M262.696 18.8299V27.1431C262.696 27.1431 261.987 27.4436 261.683 27.1431C260.264 25.0398 260.973 22.2353 258.542 20.8331C255.401 19.1304 250.437 19.1304 247.601 21.5342C242.636 25.7409 242.332 33.0525 243.751 39.2624C244.46 42.3673 246.891 45.8729 250.437 46.574C252.159 46.8744 253.983 47.2751 255.401 46.2735C256.111 43.469 255.705 40.3641 255.705 37.5597C255.705 36.5581 254.996 35.4563 253.983 35.1558C252.97 34.8554 251.552 35.4563 250.437 34.4547C250.133 33.4531 250.741 33.0525 251.45 33.0525H263.101V47.3752C261.379 48.7775 258.846 48.7775 256.718 49.0779C250.336 49.0779 243.346 49.3784 238.787 44.5708C234.937 40.0636 234.228 33.0525 235.95 27.5438C238.787 20.5326 245.777 17.4277 253.173 17.8283C256.718 17.8283 259.555 18.1288 262.696 18.8299ZM170.099 18.4293C170.099 18.4293 170.099 19.1304 169.795 19.4309C169.491 19.7314 168.072 19.7314 168.072 20.8331C169.491 24.6391 171.618 27.8442 173.341 31.2496C173.341 31.2496 178.305 22.2353 181.04 18.3291H206.064L209.204 24.6391C209.204 24.6391 209.204 25.6407 208.495 25.6407C207.482 25.6407 206.773 23.2369 206.064 22.5358C203.936 19.7314 200.39 19.7314 197.25 20.132V43.7695C197.25 44.7711 197.25 45.4722 198.263 46.1733C199.276 46.4738 200.694 46.8744 201.403 47.1749C201.707 47.876 201.403 48.5771 200.694 48.5771H185.903C185.903 48.5771 185.599 47.5756 185.903 47.1749C186.916 46.4738 189.044 47.1749 189.753 45.4722C190.462 44.4706 190.462 43.3689 190.462 43.3689V20.4325C188.334 19.4309 186.207 20.132 184.485 20.132C180.23 22.9364 178.102 28.8458 175.671 33.7536C175.367 37.5597 174.961 42.0668 175.671 45.973C176.38 47.3752 179.926 46.2735 178.811 48.7775H163.716L163.412 48.0763C164.121 45.973 166.958 47.7759 167.667 45.6725C167.971 42.5676 167.971 39.7632 167.667 36.6582L160.575 22.3355C159.866 20.6328 158.144 20.2321 156.32 19.531C156.017 18.8299 156.32 18.5294 157.03 18.5294H170.099V18.4293Z" fill="black"/>
<path fill-rule="evenodd" clip-rule="evenodd" d="M82.7702 62.9999C79.6296 62.9999 76.793 60.5961 76.793 57.0905C76.793 53.585 79.6296 51.1812 82.7702 51.1812C85.9108 51.1812 88.7475 53.585 88.7475 57.0905C88.7475 60.5961 85.9108 62.9999 82.7702 62.9999ZM77.8061 57.0905C77.8061 59.895 79.9336 61.9983 82.7702 61.9983C85.6069 61.9983 87.7344 59.895 87.7344 57.0905C87.7344 54.2861 85.6069 52.1827 82.7702 52.1827C79.9336 52.1827 77.8061 54.2861 77.8061 57.0905Z" fill="#4BA2DA"/>
<path fill-rule="evenodd" clip-rule="evenodd" d="M81.3517 57.4913H82.7701L84.4923 60.5963H85.5054L83.7832 57.4913C84.7963 57.4913 85.5054 56.7902 85.5054 55.7886C85.5054 54.3864 84.4923 53.6853 83.074 53.6853H80.6426V60.6964H81.3517V57.5915V57.4913ZM81.3517 56.7902V54.6869H82.7701C83.4793 54.6869 84.4923 54.6869 84.4923 55.6885C84.4923 56.6901 83.4793 56.6901 82.7701 56.6901H81.3517V56.7902Z" fill="#4BA2DA"/>
<path fill-rule="evenodd" clip-rule="evenodd" d="M145.075 35.5564H136.97C136.97 35.5564 139.402 27.2432 140.82 23.0366L145.075 35.5564ZM95.7372 18.4293L106.273 36.558L116.506 18.4293H126.738C127.042 20.5326 123.901 19.8315 123.597 21.5342C123.597 28.5453 123.597 37.159 123.901 44.1701C123.901 45.1717 124.611 46.9746 126.333 46.9746C127.751 46.9746 129.473 46.6741 130.183 45.2719C133.019 37.6598 135.856 30.3482 138.287 22.6359C138.591 21.6343 137.983 19.8315 136.869 19.8315C135.147 19.8315 135.451 18.4293 135.451 18.4293H147.101C147.101 18.4293 153.079 36.8585 156.624 45.5723C157.334 47.6757 160.474 45.8728 160.17 48.6773H145.683C145.683 48.6773 145.379 47.9762 145.379 47.275C146.088 46.2735 148.216 47.275 148.52 45.5723C147.81 43.1685 146.088 37.9603 146.088 37.9603H136.261L133.83 45.5723C133.526 47.275 137.679 46.5739 137.376 48.6773H113.061C112.352 48.3768 112.352 47.9762 112.757 47.275C113.77 46.5739 115.189 47.275 115.898 45.8728C115.898 45.8728 116.607 45.1717 116.607 43.469C116.607 37.5596 116.911 30.9491 116.303 24.6391L105.058 46.8744C104.349 47.1749 103.639 47.1749 102.626 46.8744C99.4857 39.5628 95.5346 32.5517 91.6849 25.2401C90.6718 31.5501 90.6718 38.1606 90.6718 44.3704C90.6718 46.7743 93.1032 46.4738 94.5215 47.1749C95.2307 47.1749 94.8255 48.1765 94.8255 48.5771H83.5801V47.1749C85.3023 46.8744 86.7207 46.1733 87.1259 44.7711C87.8351 37.7599 88.5443 30.4483 88.8482 23.5374C88.8482 22.1351 88.5443 20.4324 87.1259 20.0318C86.4168 19.7313 84.6945 19.7313 84.9984 18.6296L85.3023 18.3291H95.8386L95.7372 18.4293ZM222.577 35.5564H214.472L218.322 23.0366L222.577 35.5564ZM233.822 44.8712C234.532 47.6757 238.381 45.8728 237.672 48.6773H223.185C223.185 48.6773 222.476 47.9762 222.881 47.275C223.59 46.2735 226.427 46.9746 226.022 45.5723L223.59 37.9603H213.763L211.332 45.5723C211.028 47.6757 215.181 45.8728 214.472 48.6773H203.531C203.531 48.6773 203.227 47.6757 203.531 47.275C204.949 46.9746 207.381 46.9746 208.09 44.8712L215.789 22.9364C215.789 21.9348 216.093 21.2337 215.485 20.5326C214.776 19.531 213.054 19.531 213.054 18.4293H224.705L233.822 44.8712Z" fill="black"/>
<path fill-rule="evenodd" clip-rule="evenodd" d="M0 19.8315C0 19.8315 0 16.3259 4.25501 16.3259C8.81394 16.3259 10.9414 21.5342 10.9414 21.5342L20.7685 44.1701C20.7685 44.1701 21.7816 46.5739 23.6052 47.6757C25.3274 48.6773 28.5693 48.6773 28.5693 48.6773H34.9519C34.9519 48.6773 33.9388 47.6757 32.8243 46.2735C31.8112 44.8712 31.1021 43.469 31.1021 43.469L20.5659 19.1304C20.5659 19.1304 19.1475 16.3259 17.02 15.3243C15.2978 14.3227 12.765 14.3227 12.765 14.3227H6.38251C6.38251 14.3227 2.83667 14.3227 1.82357 13.6216C0 12.5199 0 10.1161 0 10.1161C0 4.50715 4.55894 0 10.5362 0H64.0277C69.7011 0 74.26 4.50715 74.26 10.1161V43.8696C74.26 43.8696 74.26 46.6741 70.4102 46.6741C65.4461 46.6741 64.0277 42.868 64.0277 42.868L53.7955 19.2305C53.7955 19.2305 52.3771 16.4261 50.2496 15.4245C48.1221 14.4229 45.6907 14.4229 45.6907 14.4229H39.7134C39.7134 14.4229 41.1317 16.1256 42.1448 17.2273C42.854 18.2289 43.5632 20.3323 43.5632 20.3323L53.7955 44.3704C53.7955 44.3704 55.2138 46.7743 56.9361 47.876C58.6583 48.8776 61.9002 48.8776 61.9002 48.8776H68.2827C68.2827 48.8776 71.1194 48.5771 72.5378 49.5787C74.6653 50.9809 74.26 53.0843 74.26 53.0843C74.26 58.6932 69.7011 63.2003 64.0277 63.2003H10.5362C4.55894 63.2003 0 58.6932 0 53.0843V19.8315Z" fill="#4BA2DA"/>
<path fill-rule="evenodd" clip-rule="evenodd" d="M23.1999 14.3227H29.5825C29.5825 14.3227 32.0139 14.3227 34.1414 15.3243C35.8637 16.3259 37.282 19.1303 37.282 19.1303L47.8182 43.469C47.8182 43.469 48.5274 44.8712 49.5405 46.2734C50.5536 47.6756 51.668 48.6772 51.668 48.6772H45.2855C45.2855 48.6772 42.1449 48.6772 40.3213 47.6756C38.599 46.674 37.4846 44.1701 37.4846 44.1701L27.2523 20.1319C27.2523 20.1319 26.5432 18.0286 25.5301 17.027C24.8209 16.0254 23.0986 14.2225 23.0986 14.2225L23.1999 14.3227Z" fill="white"/>
</g>
<defs>
<clipPath id="clip0_954_1715">
<rect width="263" height="63" fill="white"/>
</clipPath>
</defs>
</svg>