<svg xmlns="http://www.w3.org/2000/svg" width="268" height="59" viewBox="0 0 268 59" fill="none">
<path d="M4.66899 0V12.9492H27.8972L0 58.7966H50.5419V45.8474H25.7962L53.6934 0H4.78572H4.66899ZM56.9617 0V58.9133H90.5785V45.964H72.2527V35.8146H89.6447V22.8653H72.2527V13.0659H90.5785V0.116663H56.9617V0Z" fill="black"/>
<path d="M115.675 27.0651H113.107V12.3659H115.675C121.628 12.3659 126.764 12.3659 126.764 19.8322C126.764 27.2984 121.278 26.9484 115.675 26.9484M121.161 0H97.6992V58.9133H113.107V39.431H121.861C135.285 39.431 142.755 33.3647 142.755 19.4822C142.755 5.94966 134.001 0.116663 121.278 0.116663" fill="black"/>
<path d="M235.784 26.3652H234.267V11.666H235.784C240.803 11.666 246.406 12.5993 246.406 19.0156C246.406 25.4319 240.803 26.3652 235.784 26.3652ZM249.441 34.7647C257.845 33.2481 262.398 26.2485 262.398 18.199C262.398 5.59971 253.526 0.116699 241.854 0.116699H238.936L217.342 35.8146V58.9133H234.267V36.2813H234.384L248.857 58.9133H268L249.441 34.7647Z" fill="black"/>
<path d="M220.494 0H198.783L209.639 19.7155L220.494 0Z" fill="black"/>
<path d="M185.009 7.69955V24.0319H162.831V0H145.906V58.9133H162.831V36.0479H185.009V58.9133H201.934V35.8146L185.009 7.81622V7.69955Z" fill="black"/>
</svg>