<svg width="598" height="626" viewBox="0 0 598 626" fill="none" xmlns="http://www.w3.org/2000/svg">
<path fill-rule="evenodd" clip-rule="evenodd" d="M512.004 156C515.919 156 519.759 156.282 523.525 156.847L529.185 173.995C534.144 175.41 538.857 177.426 543.224 179.967L559.492 172.123C565.252 176.546 570.378 181.761 574.701 187.599L566.567 203.722C569.041 208.149 570.95 212.866 572.294 217.872L589.342 223.811C590.291 231.02 590.227 238.325 589.152 245.516L572.005 251.176C570.596 256.083 568.59 260.798 566.032 265.216L573.877 281.483C569.452 287.249 564.242 292.368 558.4 296.692L542.277 288.558C537.818 291.05 533.064 292.974 528.127 294.285L522.188 311.333C514.98 312.282 507.674 312.218 500.483 311.144L494.823 293.996C489.916 292.587 485.201 290.581 480.784 288.024L464.516 295.868C458.75 291.443 453.631 286.233 449.307 280.391L457.441 264.268C454.96 259.804 453.036 255.051 451.714 250.118L434.666 244.168C433.718 236.963 433.782 229.661 434.856 222.474L452.003 216.814C453.418 211.856 455.435 207.143 457.976 202.775L450.132 186.507C454.557 180.741 459.766 175.622 465.608 171.298L481.731 179.432C486.19 176.941 490.944 175.017 495.881 173.705L501.831 156.657C505.166 156.219 508.557 156 512.004 156Z" fill="white" stroke="#F8EDE3" stroke-width="16" stroke-linecap="round" stroke-linejoin="round"/>
<path d="M512.004 267.422C530.465 267.422 545.43 252.456 545.43 233.995C545.43 215.534 530.465 200.569 512.004 200.569C493.543 200.569 478.577 215.534 478.577 233.995C478.577 252.456 493.543 267.422 512.004 267.422Z" fill="black" stroke="#F8EDE3" stroke-width="16" stroke-linecap="round" stroke-linejoin="round"/>
<path d="M271.687 405.419V432H168.06V409.508L215.794 359.209C220.01 354.37 223.409 350.042 225.993 346.225C228.577 342.341 230.447 338.831 231.603 335.695C232.827 332.56 233.439 329.732 233.439 327.21C233.439 322.916 232.793 319.338 231.501 316.475C230.277 313.545 228.441 311.329 225.993 309.83C223.613 308.331 220.656 307.581 217.12 307.581C213.584 307.581 210.49 308.603 207.838 310.648C205.186 312.693 203.112 315.487 201.616 319.031C200.188 322.575 199.475 326.562 199.475 330.993H165C165 321.86 167.21 313.51 171.63 305.945C176.118 298.38 182.339 292.348 190.295 287.85C198.251 283.283 207.464 281 217.936 281C228.883 281 238.063 282.704 245.475 286.112C252.886 289.52 258.462 294.461 262.202 300.936C266.01 307.342 267.914 315.078 267.914 324.143C267.914 329.323 267.098 334.298 265.466 339.069C263.834 343.84 261.488 348.577 258.428 353.28C255.368 357.914 251.628 362.685 247.208 367.592C242.857 372.5 237.893 377.714 232.317 383.234L213.142 405.419H271.687Z" fill="#F8EDE3"/>
<path d="M395 373.829V400.41H288.109L286.069 379.349L345.736 283.147H372.867L343.39 331.504L318.911 373.829H395ZM380.007 283.147V432H345.634V283.147H380.007Z" fill="#F8EDE3"/>
<path d="M397.243 322V365H388V322H397.243ZM396.146 348.819L393.979 348.875C393.979 346.747 394.235 344.788 394.747 342.996C395.259 341.204 395.99 339.646 396.941 338.321C397.892 336.996 399.035 335.969 400.37 335.242C401.705 334.514 403.186 334.15 404.813 334.15C406.276 334.15 407.611 334.364 408.817 334.794C410.042 335.223 411.094 335.913 411.971 336.865C412.867 337.817 413.553 339.058 414.029 340.589C414.522 342.119 414.769 343.985 414.769 346.187V365H405.471V346.132C405.471 344.9 405.297 343.948 404.95 343.276C404.621 342.586 404.146 342.11 403.524 341.848C402.902 341.568 402.143 341.428 401.247 341.428C400.169 341.428 399.291 341.615 398.614 341.988C397.938 342.362 397.417 342.884 397.051 343.556C396.704 344.209 396.466 344.984 396.338 345.88C396.21 346.775 396.146 347.755 396.146 348.819Z" fill="#F8EDE3"/>
<path d="M429.223 342.212V365H419.98V334.71H428.62L429.223 342.212ZM438 334.486L437.835 343.248C437.47 343.211 436.976 343.164 436.354 343.108C435.733 343.052 435.212 343.024 434.791 343.024C433.712 343.024 432.78 343.155 431.993 343.416C431.225 343.659 430.585 344.032 430.074 344.536C429.58 345.021 429.214 345.637 428.976 346.383C428.757 347.13 428.656 347.998 428.675 348.987L427.002 347.867C427.002 345.833 427.194 343.985 427.578 342.324C427.98 340.645 428.547 339.198 429.278 337.985C430.01 336.753 430.896 335.811 431.939 335.158C432.981 334.486 434.151 334.15 435.449 334.15C435.906 334.15 436.354 334.178 436.793 334.234C437.25 334.29 437.653 334.374 438 334.486Z" fill="#F8EDE3"/>
<path fill-rule="evenodd" clip-rule="evenodd" d="M309.327 582.728C228.369 582.728 156.684 541.61 112.678 478.436C82.1901 440.806 64.12 394.008 64.12 343.29C64.12 327.209 65.9368 311.521 69.3902 296.395C81.394 208.217 137.642 134.759 214.129 100.883C243.353 87.9395 275.532 80.7744 309.327 80.7744C315.735 80.7744 315.567 73.0636 313.37 63.2021C300.73 61.4736 287.824 60.5807 274.71 60.5807C118.573 60.5807 0.5 193.864 0.5 350C0.5 506.136 118.573 626 274.71 626C424.462 626 547.02 509.565 556.791 362.286C540.68 486.001 432.707 582.728 309.327 582.728ZM490.361 160.587C490.136 160.284 489.911 159.981 489.685 159.679C489.939 159.975 490.192 160.273 490.444 160.57C490.417 160.576 490.389 160.581 490.361 160.587Z" fill="#F8EDE3"/>
<path d="M75.6592 362.042C68.9626 187.929 195.5 117.5 261.728 135.585L270.383 76.4471C198.263 69.2351 199.705 100.968 139.125 122.604C78.5439 144.24 20.8481 233.668 25.1753 413.968C28.637 558.207 190.089 607.73 270.383 614.461L305 584C208 584 81.0229 501.5 75.6592 362.042Z" fill="#F8EDE3"/>
<path d="M284.733 0L234.323 184.627L416.065 134.332L284.733 0Z" fill="#F8EDE3"/>
</svg>
