<svg fill="#164863" height="64px" width="64px" version="1.1" id="Layer_1" xmlns="http://www.w3.org/2000/svg" xmlns:xlink="http://www.w3.org/1999/xlink" viewBox="0 0 512 512" xml:space="preserve"><g id="SVGRepo_bgCarrier" stroke-width="0"></g><g id="SVGRepo_tracerCarrier" stroke-linecap="round" stroke-linejoin="round"></g><g id="SVGRepo_iconCarrier"> <g> <g> <g> <path d="M490.981,199.98h-25.733c0.898-2.53,1.391-5.25,1.391-8.084c0-13.372-10.88-24.253-24.253-24.253h-6.842v-9.469 c0-4.466-3.618-8.084-8.084-8.084c-4.466,0-8.084,3.618-8.084,8.084v9.469h-25.72v-9.469c0-4.466-3.618-8.084-8.084-8.084 c-4.466,0-8.084,3.618-8.084,8.084v9.469h-25.721v-9.469c0-4.466-3.618-8.084-8.084-8.084c-4.466,0-8.084,3.618-8.084,8.084 v9.469h-6.844c-13.372,0-24.253,10.88-24.253,24.253c0,2.834,0.494,5.554,1.391,8.084h-99.786c0.898-2.53,1.391-5.25,1.391-8.084 c0-13.372-10.88-24.253-24.253-24.253h-6.842v-9.469c0-4.466-3.619-8.084-8.084-8.084s-8.084,3.618-8.084,8.084v9.469h-25.72 v-9.469c0-4.466-3.619-8.084-8.084-8.084s-8.084,3.618-8.084,8.084v9.469h-25.72v-9.469c0-4.466-3.619-8.084-8.084-8.084 s-8.084,3.618-8.084,8.084v9.469h-6.844c-13.372,0-24.253,10.88-24.253,24.253c0,2.834,0.494,5.554,1.39,8.084H21.019 C9.429,199.98,0,209.41,0,220.999v92.869c0,11.59,9.429,21.019,21.019,21.019h12.037v6.004c0,11.59,9.429,21.019,21.019,21.019 h17.244c11.59,0,21.019-9.429,21.019-21.019v-6.004h34.973c4.466,0,8.084-3.618,8.084-8.084c0-4.466-3.618-8.084-8.084-8.084 H84.254H41.14H21.019c-2.674,0-4.851-2.176-4.851-4.851v-92.869c0-2.674,2.176-4.851,4.851-4.851h48.595h113.632h145.509h113.632 h48.595c2.674,0,4.851,2.176,4.851,4.851v92.869c0,2.674-2.176,4.851-4.851,4.851H470.86h-43.114H153.722 c-4.466,0-8.084,3.618-8.084,8.084c0,4.466,3.618,8.084,8.084,8.084h265.94v6.004c0,11.59,9.429,21.019,21.019,21.019h17.244 c11.59,0,21.019-9.429,21.019-21.019v-6.004h12.037c11.59,0,21.019-9.429,21.019-21.019v-92.869 C512,209.41,502.571,199.98,490.981,199.98z M49.224,334.888h26.945v6.004c0,2.674-2.176,4.851-4.851,4.851H54.075 c-2.674,0-4.851-2.176-4.851-4.851V334.888z M183.245,199.98H69.614c-4.458,0-8.084-3.626-8.084-8.084s3.626-8.084,8.084-8.084 h113.632c4.458,0,8.084,3.626,8.084,8.084S187.703,199.98,183.245,199.98z M442.386,199.98H328.755 c-4.458,0-8.084-3.626-8.084-8.084s3.626-8.084,8.084-8.084h113.632c4.458,0,8.084,3.626,8.084,8.084 S446.844,199.98,442.386,199.98z M462.776,340.892c0,2.674-2.176,4.851-4.851,4.851h-17.244c-2.674,0-4.851-2.176-4.851-4.851 v-6.004h26.945V340.892z"></path> <path d="M159.305,266.654c0-18.127-14.749-32.876-32.876-32.876s-32.876,14.749-32.876,32.876s14.749,32.876,32.876,32.876 S159.305,284.781,159.305,266.654z M126.429,283.362c-9.213,0-16.707-7.495-16.707-16.707s7.495-16.707,16.707-16.707 s16.707,7.495,16.707,16.707S135.642,283.362,126.429,283.362z"></path> <path d="M418.447,266.654c0-18.127-14.749-32.876-32.876-32.876c-18.127,0-32.876,14.749-32.876,32.876 s14.749,32.876,32.876,32.876C403.698,299.53,418.447,284.781,418.447,266.654z M368.864,266.654 c0-9.213,7.495-16.707,16.707-16.707s16.707,7.495,16.707,16.707s-7.495,16.707-16.707,16.707S368.864,275.867,368.864,266.654z"></path> <path d="M188.842,248.288h134.315c4.466,0,8.084-3.618,8.084-8.084c0-4.466-3.618-8.084-8.084-8.084H188.842 c-4.466,0-8.084,3.618-8.084,8.084C180.758,244.67,184.377,248.288,188.842,248.288z"></path> <path d="M188.842,275.518h134.315c4.466,0,8.084-3.619,8.084-8.084s-3.618-8.084-8.084-8.084H188.842 c-4.466,0-8.084,3.619-8.084,8.084S184.377,275.518,188.842,275.518z"></path> <path d="M188.842,302.75h134.315c4.466,0,8.084-3.619,8.084-8.084s-3.618-8.084-8.084-8.084H188.842 c-4.466,0-8.084,3.619-8.084,8.084S184.377,302.75,188.842,302.75z"></path> </g> </g> </g> </g></svg>