<svg width="394" height="512" viewBox="0 0 394 512" fill="none" xmlns="http://www.w3.org/2000/svg">
<path d="M197 0C183.215 0 173.251 5.78954 169.313 11.6972C167.343 13.6665 165.748 17.7231 163.779 19.6923H137.923C116.262 19.6923 98.5384 37.4154 98.5384 59.0769H59.1538C25.6769 59.0769 0.0769043 84.6769 0.0769043 118.154V452.923C0.0769043 486.4 25.6769 512 59.1538 512H334.846C368.323 512 393.923 486.4 393.923 452.923V118.154C393.923 84.6769 368.323 59.0769 334.846 59.0769H295.462C295.462 37.4154 277.738 19.6923 256.077 19.6923H230.221C228.252 17.7231 226.676 13.6665 224.707 11.6972C220.749 5.78954 210.785 0 197 0ZM137.923 59.0769H256.077V98.4615H137.923V59.0769ZM59.1538 118.154H104.702C110.61 129.969 124.138 137.846 137.923 137.846H256.077C269.862 137.846 283.39 129.969 289.318 118.154H334.846V452.923H59.1538V118.154ZM267.164 210.471C263.462 210.471 259.878 211.81 257.908 214.764L171.164 307.082L137.923 275.692C132.015 269.785 122.169 269.785 118.231 275.692L104.682 289.241C98.7748 295.148 98.7748 304.994 104.682 308.933L159.466 360.606C167.343 368.482 179.277 366.021 187.154 358.144L293.61 244.322C297.549 240.384 297.687 232.369 291.779 226.462L277.601 214.764C274.83 212.001 271.077 210.47 267.164 210.471Z" fill="#F8EDE3"/>
</svg>
