<svg width="489" height="512" viewBox="0 0 489 512" fill="none" xmlns="http://www.w3.org/2000/svg">
<path d="M510.985 419.904L417.354 246.752C426.906 225.072 432.25 201.112 432.25 175.904C432.25 78.752 353.49 0 256.346 0C159.178 0 80.4263 78.76 80.4263 175.904C80.4263 201.72 86.0343 226.216 96.0183 248.296L1.97029 419.824C-1.06221 425.336 -0.558214 432.136 3.23379 437.168C7.03379 442.184 13.4498 444.544 19.5773 443.105L99.8893 424.681L127.377 501.241C129.521 507.193 134.953 511.321 141.249 511.785C141.658 511.817 142.049 511.833 142.433 511.833C145.326 511.832 148.165 511.046 150.647 509.56C153.13 508.074 155.162 505.942 156.529 503.393L238.377 350.905C244.345 351.51 250.339 351.811 256.337 351.809C261.897 351.809 267.385 351.521 272.809 351.009L356.433 503.513C357.913 506.216 360.142 508.435 362.853 509.901C365.564 511.367 368.64 512.018 371.713 511.777C377.993 511.273 383.401 507.153 385.528 501.233L413.016 424.673L493.328 443.097C499.488 444.584 505.84 442.192 509.64 437.192C513.456 432.2 513.968 425.432 510.984 419.904H510.985ZM145.344 456.592L125.215 400.512C122.463 392.888 114.48 388.448 106.575 390.328L47.1753 403.952L114.88 280.464C137.176 310.584 168.856 333.304 205.6 344.36L145.344 456.592ZM112.568 175.904C112.568 96.6315 177.072 32.1355 256.352 32.1355C335.624 32.1355 400.12 96.6315 400.12 175.904C400.12 255.176 335.624 319.688 256.352 319.688C177.064 319.688 112.568 255.176 112.568 175.904ZM406.328 390.327C398.392 388.455 390.44 392.887 387.688 400.511L367.423 456.999L305.847 344.719C343.567 333.671 376.016 310.351 398.6 279.351L466.024 404.015L406.328 390.327Z" fill="#F8EDE3"/>
</svg>
